<svg
   inkscape:export-ydpi="96"
   inkscape:export-xdpi="96"
   inkscape:export-filename="blender_icons.png"
   style="display:inline;enable-background:new"
   inkscape:output_extension="org.inkscape.output.svg.inkscape"
   sodipodi:docname="blender_icons.svg"
   version="1.0"
   inkscape:version="1.2 (dc2aeda, 2022-05-15)"
   sodipodi:version="0.32"
   id="svg2"
   height="14.992433"
   width="12.9922"
   xmlns:inkscape="http://www.inkscape.org/namespaces/inkscape"
   xmlns:sodipodi="http://sodipodi.sourceforge.net/DTD/sodipodi-0.dtd"
   xmlns="http://www.w3.org/2000/svg"
   xmlns:svg="http://www.w3.org/2000/svg"
   xmlns:rdf="http://www.w3.org/1999/02/22-rdf-syntax-ns#"
   xmlns:cc="http://creativecommons.org/ns#"
   xmlns:dc="http://purl.org/dc/elements/1.1/">
  <metadata
     id="metadata34337">
    <rdf:RDF>
      <cc:Work
         rdf:about="">
        <dc:format>image/svg+xml</dc:format>
        <dc:type
           rdf:resource="http://purl.org/dc/dcmitype/StillImage" />
        <dc:title />
      </cc:Work>
    </rdf:RDF>
  </metadata>
  <sodipodi:namedview
     inkscape:pagecheckerboard="true"
     inkscape:document-rotation="0"
     pagecolor="#808080"
     bordercolor="#666666"
     borderopacity="1"
     objecttolerance="10"
     gridtolerance="10"
     guidetolerance="10"
     inkscape:pageopacity="0"
     inkscape:pageshadow="2"
     inkscape:window-width="1728"
     inkscape:window-height="1051"
     id="namedview34335"
     showgrid="false"
     inkscape:zoom="1.7115805"
     inkscape:cx="217.6351"
     inkscape:cy="369.54148"
     inkscape:window-x="767"
     inkscape:window-y="92"
     inkscape:window-maximized="0"
     inkscape:current-layer="layer4"
     inkscape:showpageshadow="2"
     inkscape:deskcolor="#808080" />
  <defs
     id="defs4" />
  <g
     inkscape:groupmode="layer"
     id="layer8"
     inkscape:label="icons"
     style="display:inline"
     transform="translate(-153.0078,-535.00562)">
    <g
       transform="translate(-1162,-873.994)"
       style="display:inline;fill:#ffffff;enable-background:new"
       id="g17413-4-0"
       inkscape:label="Z-8">
      <path
         inkscape:connector-curvature="0"
         id="path17404-8-7"
         transform="translate(1162,873.994)"
         d="m 164.48438,535.00586 a 0.50005,0.50005 0 0 0 -0.1211,0.0195 l -1.36328,0.3887 0.01,2.03906 1.63085,-0.46679 A 0.50005,0.50005 0 0 0 165,536.50586 v -1 a 0.50005,0.50005 0 0 0 -0.51562,-0.5 z M 162,535.70117 l -2,0.57031 0.01,2.03907 2,-0.57227 z m -3,0.85547 -1.63672,0.46875 A 0.50005,0.50005 0 0 0 157,537.50586 v 1 a 0.50005,0.50005 0 0 0 0.63672,0.48047 l 1.36914,-0.39063 z M 157,542 v 1 l 8.5,0.01 c 0.276,-5e-4 0.4995,-0.224 0.5,-0.5 -5e-4,-0.276 -0.224,-0.4995 -0.5,-0.5 z m -3,2.00586 v 5.49219 c 0,0.2761 0.2239,0.5 0.5,0.5 h 11 c 0.2761,0 0.5,-0.2239 0.5,-0.5 v -4.99219 c 0,-0.2761 -0.2239,-0.5 -0.5,-0.5 z"
         style="color:#000000;font-style:normal;font-variant:normal;font-weight:normal;font-stretch:normal;font-size:medium;line-height:normal;font-family:sans-serif;font-variant-ligatures:normal;font-variant-position:normal;font-variant-caps:normal;font-variant-numeric:normal;font-variant-alternates:normal;font-feature-settings:normal;text-indent:0;text-align:start;text-decoration:none;text-decoration-line:none;text-decoration-style:solid;text-decoration-color:#000000;letter-spacing:normal;word-spacing:normal;text-transform:none;writing-mode:lr-tb;direction:ltr;text-orientation:mixed;dominant-baseline:auto;baseline-shift:baseline;text-anchor:start;white-space:normal;shape-padding:0;clip-rule:nonzero;display:inline;overflow:visible;visibility:visible;opacity:1;isolation:auto;mix-blend-mode:normal;color-interpolation:sRGB;color-interpolation-filters:linearRGB;solid-color:#000000;solid-opacity:1;vector-effect:none;fill:#ffffff;fill-opacity:1;fill-rule:nonzero;stroke:none;stroke-width:1px;stroke-linecap:butt;stroke-linejoin:round;stroke-miterlimit:4;stroke-dasharray:none;stroke-dashoffset:0;stroke-opacity:1;color-rendering:auto;image-rendering:auto;shape-rendering:auto;text-rendering:auto;enable-background:accumulate" />
      <path
         style="color:#000000;font-style:normal;font-variant:normal;font-weight:normal;font-stretch:normal;font-size:medium;line-height:normal;font-family:sans-serif;font-variant-ligatures:normal;font-variant-position:normal;font-variant-caps:normal;font-variant-numeric:normal;font-variant-alternates:normal;font-feature-settings:normal;text-indent:0;text-align:start;text-decoration:none;text-decoration-line:none;text-decoration-style:solid;text-decoration-color:#000000;letter-spacing:normal;word-spacing:normal;text-transform:none;writing-mode:lr-tb;direction:ltr;text-orientation:mixed;dominant-baseline:auto;baseline-shift:baseline;text-anchor:start;white-space:normal;shape-padding:0;clip-rule:nonzero;display:inline;overflow:visible;visibility:visible;opacity:0.7;isolation:auto;mix-blend-mode:normal;color-interpolation:sRGB;color-interpolation-filters:linearRGB;solid-color:#000000;solid-opacity:1;vector-effect:none;fill:#ffffff;fill-opacity:1;fill-rule:nonzero;stroke:none;stroke-width:1px;stroke-linecap:butt;stroke-linejoin:round;stroke-miterlimit:4;stroke-dasharray:none;stroke-dashoffset:0;stroke-opacity:1;color-rendering:auto;image-rendering:auto;shape-rendering:auto;text-rendering:auto;enable-background:accumulate"
         d="m 1315.5078,1411.9922 a 0.50005,0.50005 0 0 0 -0.5,0.5 v 4 a 0.50005,0.50005 0 0 0 0.5,0.5 h 2 a 0.50005,0.50005 0 0 0 0.5,-0.5 v -2 -2 a 0.50005,0.50005 0 0 0 -0.5,-0.5 z m 0.5,1 h 1 v 1.5 1.5 h -1 z"
         id="path17409-0-0"
         inkscape:connector-curvature="0" />
    </g>
  </g>
</svg>
