<svg
   inkscape:export-ydpi="96"
   inkscape:export-xdpi="96"
   inkscape:export-filename="blender_icons.png"
   style="display:inline;enable-background:new"
   inkscape:output_extension="org.inkscape.output.svg.inkscape"
   sodipodi:docname="blender_icons.svg"
   version="1.0"
   inkscape:version="1.2 (dc2aeda, 2022-05-15)"
   sodipodi:version="0.32"
   id="svg2"
   height="14"
   width="14"
   xmlns:inkscape="http://www.inkscape.org/namespaces/inkscape"
   xmlns:sodipodi="http://sodipodi.sourceforge.net/DTD/sodipodi-0.dtd"
   xmlns="http://www.w3.org/2000/svg"
   xmlns:svg="http://www.w3.org/2000/svg"
   xmlns:rdf="http://www.w3.org/1999/02/22-rdf-syntax-ns#"
   xmlns:cc="http://creativecommons.org/ns#"
   xmlns:dc="http://purl.org/dc/elements/1.1/">
  <metadata
     id="metadata34337">
    <rdf:RDF>
      <cc:Work
         rdf:about="">
        <dc:format>image/svg+xml</dc:format>
        <dc:type
           rdf:resource="http://purl.org/dc/dcmitype/StillImage" />
        <dc:title />
      </cc:Work>
    </rdf:RDF>
  </metadata>
  <sodipodi:namedview
     inkscape:pagecheckerboard="true"
     inkscape:document-rotation="0"
     pagecolor="#808080"
     bordercolor="#666666"
     borderopacity="1"
     objecttolerance="10"
     gridtolerance="10"
     guidetolerance="10"
     inkscape:pageopacity="0"
     inkscape:pageshadow="2"
     inkscape:window-width="1728"
     inkscape:window-height="1051"
     id="namedview34335"
     showgrid="false"
     inkscape:zoom="1.7115805"
     inkscape:cx="217.6351"
     inkscape:cy="369.54148"
     inkscape:window-x="767"
     inkscape:window-y="92"
     inkscape:window-maximized="0"
     inkscape:current-layer="layer4"
     inkscape:showpageshadow="2"
     inkscape:deskcolor="#808080" />
  <defs
     id="defs4" />
  <g
     inkscape:groupmode="layer"
     id="layer8"
     inkscape:label="icons"
     style="display:inline"
     transform="translate(-510,-536)">
    <g
       id="g27728"
       inkscape:label="Z-25"
       style="display:inline;enable-background:new">
      <path
         sodipodi:nodetypes="cccccccccc"
         inkscape:connector-curvature="0"
         d="m 516,545 h 2 v -2 h -2 z m 0,-4 h 2 v -2 h -2 z"
         style="display:inline;opacity:0.8;vector-effect:none;fill:#ffffff;fill-opacity:1;stroke:none;stroke-width:1;stroke-linecap:round;stroke-linejoin:round;stroke-miterlimit:4;stroke-dasharray:none;stroke-dashoffset:0;stroke-opacity:1;marker:none;paint-order:fill markers stroke;enable-background:new"
         id="path19014-3-8" />
      <path
         id="path19004-3"
         d="m 512,536 c -0.52447,0 -1.0237,0.21715 -1.39258,0.57617 C 510.23866,536.93533 510,537.43678 510,538.00195 V 548 c 8e-5,0.53017 0.21103,1.03915 0.58594,1.41406 C 510.96085,549.78897 511.46978,550 512,550 h 1.5 c 0.27613,-3e-5 0.49997,-0.22387 0.5,-0.5 v -10 c -3e-5,-0.27613 -0.22387,-0.49997 -0.5,-0.5 H 512 c -0.45232,0 -1,-0.47106 -1,-0.99805 0,-0.26349 0.1383,-0.51454 0.33203,-0.69922 C 511.52545,537.11905 511.77501,537 512,537 h 6 v 2 h 2 v -2 h 2 v 2.00586 L 520,539 v 2 l 2,0.006 v 2 L 520,543 v 2 l 2,0.006 V 547 h -1.99414 l -0.01,-2 h -2 l 0.01,2 H 515 v 1 h 8.5 c 0.27613,-3e-5 0.49997,-0.22387 0.5,-0.5 v -11 c -3e-5,-0.27613 -0.22387,-0.49997 -0.5,-0.5 h -11 z m 8,7 v -2 h -2 v 2 z"
         style="display:inline;opacity:1;vector-effect:none;fill:#ffffff;fill-opacity:1;stroke:none;stroke-width:1;stroke-linecap:round;stroke-linejoin:round;stroke-miterlimit:4;stroke-dasharray:none;stroke-dashoffset:0;stroke-opacity:1;marker:none;paint-order:fill markers stroke;enable-background:new"
         inkscape:connector-curvature="0" />
    </g>
  </g>
</svg>
