<svg
   inkscape:export-ydpi="96"
   inkscape:export-xdpi="96"
   inkscape:export-filename="blender_icons.png"
   style="display:inline;enable-background:new"
   inkscape:output_extension="org.inkscape.output.svg.inkscape"
   sodipodi:docname="blender_icons.svg"
   version="1.0"
   inkscape:version="1.2 (dc2aeda, 2022-05-15)"
   sodipodi:version="0.32"
   id="svg2"
   height="14.007178"
   width="14.003771"
   xmlns:inkscape="http://www.inkscape.org/namespaces/inkscape"
   xmlns:sodipodi="http://sodipodi.sourceforge.net/DTD/sodipodi-0.dtd"
   xmlns="http://www.w3.org/2000/svg"
   xmlns:svg="http://www.w3.org/2000/svg"
   xmlns:rdf="http://www.w3.org/1999/02/22-rdf-syntax-ns#"
   xmlns:cc="http://creativecommons.org/ns#"
   xmlns:dc="http://purl.org/dc/elements/1.1/">
  <metadata
     id="metadata34337">
    <rdf:RDF>
      <cc:Work
         rdf:about="">
        <dc:format>image/svg+xml</dc:format>
        <dc:type
           rdf:resource="http://purl.org/dc/dcmitype/StillImage" />
        <dc:title />
      </cc:Work>
    </rdf:RDF>
  </metadata>
  <sodipodi:namedview
     inkscape:pagecheckerboard="true"
     inkscape:document-rotation="0"
     pagecolor="#808080"
     bordercolor="#666666"
     borderopacity="1"
     objecttolerance="10"
     gridtolerance="10"
     guidetolerance="10"
     inkscape:pageopacity="0"
     inkscape:pageshadow="2"
     inkscape:window-width="1728"
     inkscape:window-height="1051"
     id="namedview34335"
     showgrid="false"
     inkscape:zoom="1.7115805"
     inkscape:cx="217.6351"
     inkscape:cy="369.54148"
     inkscape:window-x="767"
     inkscape:window-y="92"
     inkscape:window-maximized="0"
     inkscape:current-layer="layer4"
     inkscape:showpageshadow="2"
     inkscape:deskcolor="#808080" />
  <defs
     id="defs4" />
  <g
     inkscape:groupmode="layer"
     id="layer8"
     inkscape:label="icons"
     style="display:inline"
     transform="translate(-341.99629,-73.992127)">
    <g
       id="g34174"
       style="display:inline;enable-background:new"
       inkscape:label="D-17">
      <path
         style="color:#000000;font-style:normal;font-variant:normal;font-weight:normal;font-stretch:normal;font-size:medium;line-height:normal;font-family:sans-serif;font-variant-ligatures:normal;font-variant-position:normal;font-variant-caps:normal;font-variant-numeric:normal;font-variant-alternates:normal;font-feature-settings:normal;text-indent:0;text-align:start;text-decoration:none;text-decoration-line:none;text-decoration-style:solid;text-decoration-color:#000000;letter-spacing:normal;word-spacing:normal;text-transform:none;writing-mode:lr-tb;direction:ltr;text-orientation:mixed;dominant-baseline:auto;baseline-shift:baseline;text-anchor:start;white-space:normal;shape-padding:0;clip-rule:nonzero;display:inline;overflow:visible;visibility:visible;opacity:1;isolation:auto;mix-blend-mode:normal;color-interpolation:sRGB;color-interpolation-filters:linearRGB;solid-color:#000000;solid-opacity:1;vector-effect:none;fill:#ffffff;fill-opacity:1;fill-rule:nonzero;stroke:none;stroke-width:1;stroke-linecap:round;stroke-linejoin:round;stroke-miterlimit:4;stroke-dasharray:none;stroke-dashoffset:0;stroke-opacity:1;marker:none;paint-order:fill markers stroke;color-rendering:auto;image-rendering:auto;shape-rendering:auto;text-rendering:auto;enable-background:new"
         d="M 355.49219,73.992188 A 0.50004994,0.50004994 0 0 0 355,74.5 v 3.792969 l -2.11914,-2.117188 a 0.50004994,0.50004994 0 0 0 -0.0234,-0.02539 c -10e-4,-0.0015 -0.002,-0.0024 -0.004,-0.0039 a 0.50004994,0.50004994 0 0 0 -0.1875,-0.121093 c -1.78999,-1.727877 -3.76997,-2.331734 -5.85938,-1.875 -2.1873,0.478135 -3.98484,2.053048 -4.77539,4.175781 a 0.50004994,0.50004994 0 1 0 0.9375,0.347656 c 0.67415,-1.810183 2.19925,-3.142137 4.05078,-3.546875 1.87803,-0.410528 3.46011,0.02939 5.12305,1.722656 a 0.50004994,0.50004994 0 0 0 0.002,0.002 0.50004994,0.50004994 0 0 0 0.002,0.002 0.50004994,0.50004994 0 0 0 0.0332,0.03125 L 354.29297,79 H 350.5 a 0.50004994,0.50004994 0 1 0 0,1 h 5 a 0.50004994,0.50004994 0 0 0 0.5,-0.5 v -5 a 0.50004994,0.50004994 0 0 0 -0.50781,-0.507812 z"
         id="path13235"
         inkscape:connector-curvature="0" />
      <path
         style="color:#000000;font-style:normal;font-variant:normal;font-weight:normal;font-stretch:normal;font-size:medium;line-height:normal;font-family:sans-serif;font-variant-ligatures:normal;font-variant-position:normal;font-variant-caps:normal;font-variant-numeric:normal;font-variant-alternates:normal;font-feature-settings:normal;text-indent:0;text-align:start;text-decoration:none;text-decoration-line:none;text-decoration-style:solid;text-decoration-color:#000000;letter-spacing:normal;word-spacing:normal;text-transform:none;writing-mode:lr-tb;direction:ltr;text-orientation:mixed;dominant-baseline:auto;baseline-shift:baseline;text-anchor:start;white-space:normal;shape-padding:0;clip-rule:nonzero;display:inline;overflow:visible;visibility:visible;opacity:1;isolation:auto;mix-blend-mode:normal;color-interpolation:sRGB;color-interpolation-filters:linearRGB;solid-color:#000000;solid-opacity:1;vector-effect:none;fill:#ffffff;fill-opacity:1;fill-rule:nonzero;stroke:none;stroke-width:1;stroke-linecap:round;stroke-linejoin:round;stroke-miterlimit:4;stroke-dasharray:none;stroke-dashoffset:0;stroke-opacity:1;marker:none;paint-order:fill markers stroke;color-rendering:auto;image-rendering:auto;shape-rendering:auto;text-rendering:auto;enable-background:new"
         d="m 342.49805,81.992188 a 0.50004994,0.50004994 0 0 0 -0.5,0.5 v 5 a 0.50004994,0.50004994 0 1 0 1,0 v -3.792969 l 2.11914,2.11914 a 0.50004994,0.50004994 0 0 0 0.0234,0.02539 l 0.004,0.002 c 7.2e-4,7.3e-4 0.001,0.0012 0.002,0.002 a 0.50004994,0.50004994 0 0 0 0.18555,0.121094 c 1.78998,1.727877 3.76997,2.331734 5.85938,1.875 2.1873,-0.478136 3.98484,-2.053048 4.77539,-4.175781 a 0.50028327,0.50028327 0 1 0 -0.9375,-0.34961 c -0.67415,1.810184 -2.19925,3.14409 -4.05078,3.548829 -1.87804,0.410528 -3.46011,-0.03135 -5.12305,-1.72461 a 0.50004994,0.50004994 0 0 0 -0.004,-0.0039 l -0.0332,-0.03125 -2.11328,-2.115234 h 3.79297 a 0.50004994,0.50004994 0 1 0 0,-1 z"
         id="path13252"
         inkscape:connector-curvature="0" />
    </g>
  </g>
</svg>
