<svg
   inkscape:export-ydpi="96"
   inkscape:export-xdpi="96"
   inkscape:export-filename="blender_icons.png"
   style="display:inline;enable-background:new"
   inkscape:output_extension="org.inkscape.output.svg.inkscape"
   sodipodi:docname="blender_icons.svg"
   version="1.0"
   inkscape:version="1.2 (dc2aeda, 2022-05-15)"
   sodipodi:version="0.32"
   id="svg2"
   height="13.999044"
   width="14.005434"
   xmlns:inkscape="http://www.inkscape.org/namespaces/inkscape"
   xmlns:sodipodi="http://sodipodi.sourceforge.net/DTD/sodipodi-0.dtd"
   xmlns="http://www.w3.org/2000/svg"
   xmlns:svg="http://www.w3.org/2000/svg"
   xmlns:rdf="http://www.w3.org/1999/02/22-rdf-syntax-ns#"
   xmlns:cc="http://creativecommons.org/ns#"
   xmlns:dc="http://purl.org/dc/elements/1.1/">
  <metadata
     id="metadata34337">
    <rdf:RDF>
      <cc:Work
         rdf:about="">
        <dc:format>image/svg+xml</dc:format>
        <dc:type
           rdf:resource="http://purl.org/dc/dcmitype/StillImage" />
        <dc:title />
      </cc:Work>
    </rdf:RDF>
  </metadata>
  <sodipodi:namedview
     inkscape:pagecheckerboard="true"
     inkscape:document-rotation="0"
     pagecolor="#808080"
     bordercolor="#666666"
     borderopacity="1"
     objecttolerance="10"
     gridtolerance="10"
     guidetolerance="10"
     inkscape:pageopacity="0"
     inkscape:pageshadow="2"
     inkscape:window-width="1728"
     inkscape:window-height="1051"
     id="namedview34335"
     showgrid="false"
     inkscape:zoom="1.7115805"
     inkscape:cx="217.6351"
     inkscape:cy="369.54148"
     inkscape:window-x="767"
     inkscape:window-y="92"
     inkscape:window-maximized="0"
     inkscape:current-layer="layer4"
     inkscape:showpageshadow="2"
     inkscape:deskcolor="#808080" />
  <defs
     id="defs4" />
  <g
     inkscape:groupmode="layer"
     id="layer8"
     inkscape:label="icons"
     style="display:inline"
     transform="translate(-299.99456,-431)">
    <g
       id="g76946"
       style="display:inline;enable-background:new"
       inkscape:label="U-15">
      <path
         style="color:#000000;font-style:normal;font-variant:normal;font-weight:normal;font-stretch:normal;font-size:medium;line-height:normal;font-family:sans-serif;font-variant-ligatures:normal;font-variant-position:normal;font-variant-caps:normal;font-variant-numeric:normal;font-variant-alternates:normal;font-feature-settings:normal;text-indent:0;text-align:start;text-decoration:none;text-decoration-line:none;text-decoration-style:solid;text-decoration-color:#000000;letter-spacing:normal;word-spacing:normal;text-transform:none;writing-mode:lr-tb;direction:ltr;text-orientation:mixed;dominant-baseline:auto;baseline-shift:baseline;text-anchor:start;white-space:normal;shape-padding:0;clip-rule:nonzero;display:inline;overflow:visible;visibility:visible;opacity:1;isolation:auto;mix-blend-mode:normal;color-interpolation:sRGB;color-interpolation-filters:linearRGB;solid-color:#000000;solid-opacity:1;vector-effect:none;fill:#ffffff;fill-opacity:1;fill-rule:nonzero;stroke:none;stroke-width:2.25;stroke-linecap:round;stroke-linejoin:round;stroke-miterlimit:4;stroke-dasharray:none;stroke-dashoffset:0;stroke-opacity:1;marker:none;color-rendering:auto;image-rendering:auto;shape-rendering:auto;text-rendering:auto;enable-background:new"
         d="m 302.64518,431.00052 a 1.1251124,1.1233465 0 0 0 -0.7734,0.3412 l -1.5313,1.5269 a 1.1251124,1.1233465 0 1 0 1.5918,1.5874 l 1.5293,-1.5269 a 1.1251124,1.1233465 0 0 0 -0.8164,-1.9286 z m 5.0977,0 a 1.1251124,1.1233465 0 0 0 -0.7735,0.3393 l -6.6289,6.6185 a 1.125572,1.1238054 0 1 0 1.5918,1.5893 l 2.1289,-2.1256 c 0.2384,-1.1729 1.1734,-2.1044 2.3477,-2.344 l 2.1523,-2.1489 a 1.1251124,1.1233465 0 0 0 -0.8183,-1.9286 z m 5.0996,0 a 1.1251124,1.1233465 0 0 0 -0.7735,0.3393 l -3.916,3.9099 c 0.7144,0.3005 1.2901,0.8706 1.5996,1.5795 l 3.9063,-3.9001 a 1.1251124,1.1233465 0 0 0 -0.8164,-1.9286 z m 0,5.0916 a 1.1251124,1.1233465 0 0 0 -0.7735,0.3393 l -2.123,2.1197 c -0.2257,1.2122 -1.1902,2.1751 -2.4043,2.4005 l -2.1016,2.0983 a 1.1251124,1.1233465 0 1 0 1.5918,1.5873 l 6.627,-6.6165 a 1.1251124,1.1233465 0 0 0 -0.8164,-1.9286 z m -5.8418,0.9204 c -0.5601,0 -0.9917,0.4296 -0.9981,0.9867 0.01,0.5524 0.4434,0.9887 0.9981,0.9887 0.5547,0 0.9926,-0.4363 0.998,-0.9887 -0.01,-0.5571 -0.438,-0.9867 -0.998,-0.9867 z m -2.7656,2.149 -3.8946,3.8884 a 1.1251124,1.1233465 0 1 0 1.5918,1.5873 l 3.8848,-3.8786 c -0.7095,-0.3088 -1.2808,-0.8846 -1.582,-1.5971 z m 8.6074,2.0202 a 1.1251124,1.1233465 0 0 0 -0.7735,0.3413 l -1.5293,1.5269 a 1.1251124,1.1233465 0 1 0 1.5899,1.5873 l 1.5293,-1.5269 a 1.1251124,1.1233465 0 0 0 -0.8164,-1.9286 z"
         id="path21492-2"
         inkscape:connector-curvature="0" />
    </g>
  </g>
</svg>
