<svg
   inkscape:export-ydpi="96"
   inkscape:export-xdpi="96"
   inkscape:export-filename="blender_icons.png"
   style="display:inline;enable-background:new"
   inkscape:output_extension="org.inkscape.output.svg.inkscape"
   sodipodi:docname="blender_icons.svg"
   version="1.0"
   inkscape:version="1.2 (dc2aeda, 2022-05-15)"
   sodipodi:version="0.32"
   id="svg2"
   height="14"
   width="14"
   xmlns:inkscape="http://www.inkscape.org/namespaces/inkscape"
   xmlns:sodipodi="http://sodipodi.sourceforge.net/DTD/sodipodi-0.dtd"
   xmlns="http://www.w3.org/2000/svg"
   xmlns:svg="http://www.w3.org/2000/svg"
   xmlns:rdf="http://www.w3.org/1999/02/22-rdf-syntax-ns#"
   xmlns:cc="http://creativecommons.org/ns#"
   xmlns:dc="http://purl.org/dc/elements/1.1/">
  <metadata
     id="metadata34337">
    <rdf:RDF>
      <cc:Work
         rdf:about="">
        <dc:format>image/svg+xml</dc:format>
        <dc:type
           rdf:resource="http://purl.org/dc/dcmitype/StillImage" />
        <dc:title />
      </cc:Work>
    </rdf:RDF>
  </metadata>
  <sodipodi:namedview
     inkscape:pagecheckerboard="true"
     inkscape:document-rotation="0"
     pagecolor="#808080"
     bordercolor="#666666"
     borderopacity="1"
     objecttolerance="10"
     gridtolerance="10"
     guidetolerance="10"
     inkscape:pageopacity="0"
     inkscape:pageshadow="2"
     inkscape:window-width="1728"
     inkscape:window-height="1051"
     id="namedview34335"
     showgrid="false"
     inkscape:zoom="1.7115805"
     inkscape:cx="217.6351"
     inkscape:cy="369.54148"
     inkscape:window-x="767"
     inkscape:window-y="92"
     inkscape:window-maximized="0"
     inkscape:current-layer="layer4"
     inkscape:showpageshadow="2"
     inkscape:deskcolor="#808080" />
  <defs
     id="defs4" />
  <g
     inkscape:groupmode="layer"
     id="layer8"
     inkscape:label="icons"
     style="display:inline"
     transform="translate(-426,-452)">
    <g
       id="g38068"
       inkscape:label="V-21"
       style="display:inline;enable-background:new">
      <path
         style="color:#000000;font-style:normal;font-variant:normal;font-weight:normal;font-stretch:normal;font-size:medium;line-height:normal;font-family:sans-serif;font-variant-ligatures:normal;font-variant-position:normal;font-variant-caps:normal;font-variant-numeric:normal;font-variant-alternates:normal;font-feature-settings:normal;text-indent:0;text-align:start;text-decoration:none;text-decoration-line:none;text-decoration-style:solid;text-decoration-color:#000000;letter-spacing:normal;word-spacing:normal;text-transform:none;writing-mode:lr-tb;direction:ltr;text-orientation:mixed;dominant-baseline:auto;baseline-shift:baseline;text-anchor:start;white-space:normal;shape-padding:0;clip-rule:nonzero;display:inline;overflow:visible;visibility:visible;opacity:1;isolation:auto;mix-blend-mode:normal;color-interpolation:sRGB;color-interpolation-filters:linearRGB;solid-color:#000000;solid-opacity:1;vector-effect:none;fill:#ffffff;fill-opacity:1;fill-rule:nonzero;stroke:none;stroke-width:1px;stroke-linecap:butt;stroke-linejoin:round;stroke-miterlimit:4;stroke-dasharray:none;stroke-dashoffset:0;stroke-opacity:1;marker:none;paint-order:fill markers stroke;color-rendering:auto;image-rendering:auto;shape-rendering:auto;text-rendering:auto;enable-background:accumulate"
         d="m 428.25,452 c -0.6506,0 -1.23633,0.19727 -1.64453,0.60547 -0.4083,0.4081 -0.60567,0.99393 -0.60547,1.64453 v 9.5 c 2e-4,0.6505 0.19727,1.23643 0.60547,1.64453 C 427.01357,465.80273 427.5994,466 428.25,466 H 429 v -1 h -0.75 c -0.4574,0 -0.7477,-0.1227 -0.9375,-0.3125 -0.1898,-0.1898 -0.3124,-0.48 -0.3125,-0.9375 v -9.5 c -10e-5,-0.4574 0.1227,-0.7477 0.3125,-0.9375 C 427.5023,453.1227 427.7926,453 428.25,453 H 429 v -1 z m 8.75,0 v 1 h 0.75 c 0.4574,0 0.7477,0.1227 0.9375,0.3125 0.1898,0.1898 0.3125,0.4801 0.3125,0.9375 v 9.5 c 0,0.4574 -0.1227,0.7477 -0.3125,0.9375 C 438.4977,464.8773 438.2074,465 437.75,465 H 437 v 1 h 0.75 c 0.6506,0 1.23643,-0.19727 1.64453,-0.60547 C 439.80273,464.98643 440,464.4006 440,463.75 v -9.5 c 0,-0.6506 -0.19727,-1.23643 -0.60547,-1.64453 C 438.98643,452.19727 438.4006,452 437.75,452 Z m -4,4 v 2 h -1.5 a 0.50005,0.50005 0 0 0 -0.5,0.5 v 1.5 h -2 v 1 h 2 v 1.5 a 0.50005,0.50005 0 0 0 0.5,0.5 h 1.5 v 2 h 1 v -2 h 1.5 a 0.50005,0.50005 0 0 0 0.5,-0.5 V 461 h 2 v -1 h -2 v -1.5 A 0.50005,0.50005 0 0 0 435.5,458 H 434 v -2 z m -1,3 h 3 v 3 h -3 z"
         id="path19168-3"
         inkscape:connector-curvature="0" />
    </g>
  </g>
</svg>
