<svg
   inkscape:export-ydpi="96"
   inkscape:export-xdpi="96"
   inkscape:export-filename="blender_icons.png"
   style="display:inline;enable-background:new"
   inkscape:output_extension="org.inkscape.output.svg.inkscape"
   sodipodi:docname="blender_icons.svg"
   version="1.0"
   inkscape:version="1.2 (dc2aeda, 2022-05-15)"
   sodipodi:version="0.32"
   id="svg2"
   height="14.007328"
   width="14.011426"
   xmlns:inkscape="http://www.inkscape.org/namespaces/inkscape"
   xmlns:sodipodi="http://sodipodi.sourceforge.net/DTD/sodipodi-0.dtd"
   xmlns="http://www.w3.org/2000/svg"
   xmlns:svg="http://www.w3.org/2000/svg"
   xmlns:rdf="http://www.w3.org/1999/02/22-rdf-syntax-ns#"
   xmlns:cc="http://creativecommons.org/ns#"
   xmlns:dc="http://purl.org/dc/elements/1.1/">
  <metadata
     id="metadata34337">
    <rdf:RDF>
      <cc:Work
         rdf:about="">
        <dc:format>image/svg+xml</dc:format>
        <dc:type
           rdf:resource="http://purl.org/dc/dcmitype/StillImage" />
        <dc:title />
      </cc:Work>
    </rdf:RDF>
  </metadata>
  <sodipodi:namedview
     inkscape:pagecheckerboard="true"
     inkscape:document-rotation="0"
     pagecolor="#808080"
     bordercolor="#666666"
     borderopacity="1"
     objecttolerance="10"
     gridtolerance="10"
     guidetolerance="10"
     inkscape:pageopacity="0"
     inkscape:pageshadow="2"
     inkscape:window-width="1728"
     inkscape:window-height="1051"
     id="namedview34335"
     showgrid="false"
     inkscape:zoom="1.7115805"
     inkscape:cx="217.6351"
     inkscape:cy="369.54148"
     inkscape:window-x="767"
     inkscape:window-y="92"
     inkscape:window-maximized="0"
     inkscape:current-layer="layer4"
     inkscape:showpageshadow="2"
     inkscape:deskcolor="#808080" />
  <defs
     id="defs4" />
  <g
     inkscape:groupmode="layer"
     id="layer8"
     inkscape:label="icons"
     style="display:inline"
     transform="translate(-236.99281,-494.00002)">
    <g
       id="g5996"
       style="display:inline;fill:#ffffff;enable-background:new"
       transform="matrix(-1,0,0,1,552.832,1.5e-5)"
       inkscape:label="X-12">
      <path
         inkscape:connector-curvature="0"
         id="path5994"
         d="m 310.58203,494 c -1.1875,0 -2.13583,0.69085 -2.52344,1.62109 -0.3876,0.93025 -0.20775,2.10475 0.66993,2.98243 l 2.5,2.5 c 0.62232,0.62232 0.69247,1.32282 0.45507,1.89257 C 311.4462,503.56585 310.89453,504 310.08203,504 l -6.53515,-0.008 2.13867,-2.13867 a 0.50005,0.50005 0 1 0 -0.70703,-0.70704 l -2.9336,2.93555 -0.01,0.008 a 0.50005,0.50005 0 0 0 -0.20704,0.41602 0.50005,0.50005 0 0 0 0,0.008 0.50005,0.50005 0 0 0 0.004,0.0469 0.50005,0.50005 0 0 0 0.008,0.0488 0.50005,0.50005 0 0 0 0.19336,0.29882 l 2.94532,2.94532 a 0.50005,0.50005 0 1 0 0.70703,-0.70704 l -2.1543,-2.15429 6.55078,0.008 c 1.1875,0 2.13584,-0.69085 2.52344,-1.62109 0.3876,-0.93025 0.20775,-2.10475 -0.66992,-2.98243 l -2.5,-2.5 c -0.62233,-0.62232 -0.69248,-1.32282 -0.45508,-1.89257 0.2374,-0.56976 0.78906,-1.00391 1.60156,-1.00391 h 4.75 a 0.50005,0.50005 0 1 0 0,-1 z"
         style="color:#000000;font-style:normal;font-variant:normal;font-weight:normal;font-stretch:normal;font-size:medium;line-height:normal;font-family:sans-serif;font-variant-ligatures:normal;font-variant-position:normal;font-variant-caps:normal;font-variant-numeric:normal;font-variant-alternates:normal;font-feature-settings:normal;text-indent:0;text-align:start;text-decoration:none;text-decoration-line:none;text-decoration-style:solid;text-decoration-color:#000000;letter-spacing:normal;word-spacing:normal;text-transform:none;writing-mode:lr-tb;direction:ltr;text-orientation:mixed;dominant-baseline:auto;baseline-shift:baseline;text-anchor:start;white-space:normal;shape-padding:0;clip-rule:nonzero;display:inline;overflow:visible;visibility:visible;opacity:1;isolation:auto;mix-blend-mode:normal;color-interpolation:sRGB;color-interpolation-filters:linearRGB;solid-color:#000000;solid-opacity:1;vector-effect:none;fill:#ffffff;fill-opacity:1;fill-rule:nonzero;stroke:none;stroke-width:1;stroke-linecap:round;stroke-linejoin:round;stroke-miterlimit:4;stroke-dasharray:none;stroke-dashoffset:7.4;stroke-opacity:1;color-rendering:auto;image-rendering:auto;shape-rendering:auto;text-rendering:auto;enable-background:new" />
    </g>
  </g>
</svg>
