<svg
   inkscape:export-ydpi="96"
   inkscape:export-xdpi="96"
   inkscape:export-filename="blender_icons.png"
   style="display:inline;enable-background:new"
   inkscape:output_extension="org.inkscape.output.svg.inkscape"
   sodipodi:docname="blender_icons.svg"
   version="1.0"
   inkscape:version="1.2 (dc2aeda, 2022-05-15)"
   sodipodi:version="0.32"
   id="svg2"
   height="14.02986"
   width="14.030028"
   xmlns:inkscape="http://www.inkscape.org/namespaces/inkscape"
   xmlns:sodipodi="http://sodipodi.sourceforge.net/DTD/sodipodi-0.dtd"
   xmlns="http://www.w3.org/2000/svg"
   xmlns:svg="http://www.w3.org/2000/svg"
   xmlns:rdf="http://www.w3.org/1999/02/22-rdf-syntax-ns#"
   xmlns:cc="http://creativecommons.org/ns#"
   xmlns:dc="http://purl.org/dc/elements/1.1/">
  <metadata
     id="metadata34337">
    <rdf:RDF>
      <cc:Work
         rdf:about="">
        <dc:format>image/svg+xml</dc:format>
        <dc:type
           rdf:resource="http://purl.org/dc/dcmitype/StillImage" />
        <dc:title />
      </cc:Work>
    </rdf:RDF>
  </metadata>
  <sodipodi:namedview
     inkscape:pagecheckerboard="true"
     inkscape:document-rotation="0"
     pagecolor="#808080"
     bordercolor="#666666"
     borderopacity="1"
     objecttolerance="10"
     gridtolerance="10"
     guidetolerance="10"
     inkscape:pageopacity="0"
     inkscape:pageshadow="2"
     inkscape:window-width="1728"
     inkscape:window-height="1051"
     id="namedview34335"
     showgrid="false"
     inkscape:zoom="1.7115805"
     inkscape:cx="217.6351"
     inkscape:cy="369.54148"
     inkscape:window-x="767"
     inkscape:window-y="92"
     inkscape:window-maximized="0"
     inkscape:current-layer="layer4"
     inkscape:showpageshadow="2"
     inkscape:deskcolor="#808080" />
  <defs
     id="defs4" />
  <g
     inkscape:groupmode="layer"
     id="layer8"
     inkscape:label="icons"
     style="display:inline"
     transform="translate(-342,-472.97014)">
    <g
       id="g37788"
       inkscape:label="W-17"
       style="display:inline;enable-background:new">
      <path
         style="color:#000000;font-style:normal;font-variant:normal;font-weight:normal;font-stretch:normal;font-size:medium;line-height:normal;font-family:sans-serif;font-variant-ligatures:normal;font-variant-position:normal;font-variant-caps:normal;font-variant-numeric:normal;font-variant-alternates:normal;font-feature-settings:normal;text-indent:0;text-align:start;text-decoration:none;text-decoration-line:none;text-decoration-style:solid;text-decoration-color:#000000;letter-spacing:normal;word-spacing:normal;text-transform:none;writing-mode:lr-tb;direction:ltr;text-orientation:mixed;dominant-baseline:auto;baseline-shift:baseline;text-anchor:start;white-space:normal;shape-padding:0;clip-rule:nonzero;display:inline;overflow:visible;visibility:visible;opacity:1;isolation:auto;mix-blend-mode:normal;color-interpolation:sRGB;color-interpolation-filters:linearRGB;solid-color:#000000;solid-opacity:1;vector-effect:none;fill:#ffffff;fill-opacity:1;fill-rule:nonzero;stroke:none;stroke-width:1;stroke-linecap:butt;stroke-linejoin:round;stroke-miterlimit:4;stroke-dasharray:none;stroke-dashoffset:0;stroke-opacity:1;marker:none;paint-order:fill markers stroke;color-rendering:auto;image-rendering:auto;shape-rendering:auto;text-rendering:auto;enable-background:accumulate"
         d="m 352.72656,472.9707 c -0.84514,-0.0154 -1.69148,0.28718 -2.33008,0.92578 l -2.13476,2.13477 c -1.14247,-0.0826 -2.16028,-0.0359 -2.98047,0.30273 -0.89973,0.37145 -1.59595,1.03428 -2.08008,1.92774 C 342.23291,480.04863 342,482.7268 342,486.5 a 0.50004997,0.50004997 0 0 0 0.5,0.5 c 3.7729,0 6.45106,-0.23075 8.23828,-1.19727 0.89361,-0.48326 1.5563,-1.17766 1.92774,-2.07812 0.33865,-0.82099 0.38541,-1.84087 0.30273,-2.98633 l 2.13477,-2.13476 c 1.27714,-1.27719 1.21033,-3.38733 -0.0547,-4.65235 -0.63251,-0.63254 -1.47713,-0.96507 -2.32227,-0.98047 z m -0.01,1.00391 c 0.59016,0.0124 1.18356,0.24213 1.625,0.68359 0.88286,0.88287 0.92532,2.36759 0.0547,3.23828 l -2.25,2.25 a 0.50004997,0.50004997 0 0 0 -0.14453,0.4043 c 0.11985,1.19116 0.0231,2.10252 -0.26172,2.79297 -0.28481,0.69045 -0.74712,1.18455 -1.47851,1.58008 -1.27506,0.68955 -3.50366,0.96361 -6.50586,1.02734 l 3.10352,-3.10351 c 0.19538,0.094 0.41106,0.15234 0.64062,0.15234 0.8225,0 1.5,-0.6775 1.5,-1.5 0,-0.8225 -0.6775,-1.5 -1.5,-1.5 -0.8225,0 -1.5,0.6775 -1.5,1.5 0,0.22956 0.0584,0.44524 0.15234,0.64062 l -3.10351,3.10352 c 0.0645,-3.00197 0.34215,-5.23052 1.0332,-6.50586 0.3964,-0.73154 0.8902,-1.19371 1.58008,-1.47851 0.68987,-0.28481 1.59959,-0.38153 2.78711,-0.26172 a 0.50004997,0.50004997 0 0 0 0.4043,-0.14453 l 2.25,-2.25 c 0.43534,-0.43536 1.02312,-0.64126 1.61328,-0.62891 z"
         id="path8087-0"
         inkscape:connector-curvature="0" />
    </g>
  </g>
</svg>
