<svg
   inkscape:export-ydpi="96"
   inkscape:export-xdpi="96"
   inkscape:export-filename="blender_icons.png"
   style="display:inline;enable-background:new"
   inkscape:output_extension="org.inkscape.output.svg.inkscape"
   sodipodi:docname="blender_icons.svg"
   version="1.0"
   inkscape:version="1.2 (dc2aeda, 2022-05-15)"
   sodipodi:version="0.32"
   id="svg2"
   height="15"
   width="14"
   xmlns:inkscape="http://www.inkscape.org/namespaces/inkscape"
   xmlns:sodipodi="http://sodipodi.sourceforge.net/DTD/sodipodi-0.dtd"
   xmlns="http://www.w3.org/2000/svg"
   xmlns:svg="http://www.w3.org/2000/svg"
   xmlns:rdf="http://www.w3.org/1999/02/22-rdf-syntax-ns#"
   xmlns:cc="http://creativecommons.org/ns#"
   xmlns:dc="http://purl.org/dc/elements/1.1/">
  <metadata
     id="metadata34337">
    <rdf:RDF>
      <cc:Work
         rdf:about="">
        <dc:format>image/svg+xml</dc:format>
        <dc:type
           rdf:resource="http://purl.org/dc/dcmitype/StillImage" />
        <dc:title />
      </cc:Work>
    </rdf:RDF>
  </metadata>
  <sodipodi:namedview
     inkscape:pagecheckerboard="true"
     inkscape:document-rotation="0"
     pagecolor="#808080"
     bordercolor="#666666"
     borderopacity="1"
     objecttolerance="10"
     gridtolerance="10"
     guidetolerance="10"
     inkscape:pageopacity="0"
     inkscape:pageshadow="2"
     inkscape:window-width="1728"
     inkscape:window-height="1051"
     id="namedview34335"
     showgrid="false"
     inkscape:zoom="1.7115805"
     inkscape:cx="217.6351"
     inkscape:cy="369.54148"
     inkscape:window-x="767"
     inkscape:window-y="92"
     inkscape:window-maximized="0"
     inkscape:current-layer="layer4"
     inkscape:showpageshadow="2"
     inkscape:deskcolor="#808080" />
  <defs
     id="defs4" />
  <g
     inkscape:groupmode="layer"
     id="layer8"
     inkscape:label="icons"
     style="display:inline"
     transform="translate(-6,-472)">
    <g
       style="display:inline;fill:#ffffff;enable-background:new"
       id="g13176"
       inkscape:export-filename="blender_icons.png"
       inkscape:export-xdpi="96"
       inkscape:export-ydpi="96"
       inkscape:label="W-1">
      <path
         style="color:#000000;font-style:normal;font-variant:normal;font-weight:normal;font-stretch:normal;font-size:medium;line-height:normal;font-family:sans-serif;font-variant-ligatures:normal;font-variant-position:normal;font-variant-caps:normal;font-variant-numeric:normal;font-variant-alternates:normal;font-feature-settings:normal;text-indent:0;text-align:start;text-decoration:none;text-decoration-line:none;text-decoration-style:solid;text-decoration-color:#000000;letter-spacing:normal;word-spacing:normal;text-transform:none;writing-mode:lr-tb;direction:ltr;text-orientation:mixed;dominant-baseline:auto;baseline-shift:baseline;text-anchor:start;white-space:normal;shape-padding:0;clip-rule:nonzero;display:inline;overflow:visible;visibility:visible;opacity:1;isolation:auto;mix-blend-mode:normal;color-interpolation:sRGB;color-interpolation-filters:linearRGB;solid-color:#000000;solid-opacity:1;vector-effect:none;fill:#ffffff;fill-opacity:1;fill-rule:nonzero;stroke:none;stroke-width:1;stroke-linecap:round;stroke-linejoin:round;stroke-miterlimit:4;stroke-dasharray:none;stroke-dashoffset:0;stroke-opacity:1;marker:none;color-rendering:auto;image-rendering:auto;shape-rendering:auto;text-rendering:auto;enable-background:accumulate"
         d="m 14,472 c -0.486111,0 -0.97894,0.16032 -1.363281,0.50195 C 12.252378,472.84359 12,473.375 12,474 v 4 H 8.5 c -0.2761309,3e-5 -0.4999724,0.22387 -0.5,0.5 v 4 c 0,0.33333 -0.182083,0.72505 -0.4785156,1.02148 C 7.2250518,483.81792 6.8333333,484 6.5,484 c -0.2761309,3e-5 -0.4999724,0.22387 -0.5,0.5 v 2 c 2.76e-5,0.27613 0.2238691,0.49997 0.5,0.5 h 3 c 0.1325988,-2e-5 0.259759,-0.0527 0.3535156,-0.14648 L 11,485.70703 V 486.5 c 2.8e-5,0.27613 0.223869,0.49997 0.5,0.5 h 5 c 1.777778,0 3.5,-1.46429 3.5,-3.5 v -5 c -2.8e-5,-0.27613 -0.223869,-0.49997 -0.5,-0.5 H 16 v -4 c 0,-0.625 -0.252378,-1.15641 -0.636719,-1.49805 C 14.97894,472.16032 14.486111,472 14,472 Z m 0,1 c 0.263889,0 0.52106,0.0897 0.699219,0.24805 C 14.877378,473.40641 15,473.625 15,474 v 4 h -0.5 c -0.676161,-0.01 -0.676161,1.00956 0,1 H 19 v 1 H 9 v -1 h 3.5 c 0.276131,-3e-5 0.499972,-0.22387 0.5,-0.5 V 474 c 0,-0.375 0.122622,-0.59359 0.300781,-0.75195 C 13.47894,473.08968 13.736111,473 14,473 Z m -5,8 h 10 v 2.5 c 0,1.46429 -1.277778,2.5 -2.5,2.5 H 16 v -1.5 c 0.0044,-0.28227 -0.225547,-0.51223 -0.507812,-0.50781 C 15.216044,483.9965 14.995681,484.22386 15,484.5 v 1.5 h -3 v -1.5 c -1.7e-4,-0.44532 -0.538517,-0.6683 -0.853516,-0.35352 L 9.2929688,486 H 7 v -1.22266 C 7.4441801,484.6575 7.9061001,484.55093 8.2285156,484.22852 8.682083,483.77495 9,483.16667 9,482.5 Z"
         id="path5504-6"
         inkscape:connector-curvature="0"
         sodipodi:nodetypes="scsccccccccccccccsccccscsscscccccccccscsccssccccccccccccsc" />
    </g>
  </g>
</svg>
