<svg
   inkscape:export-ydpi="96"
   inkscape:export-xdpi="96"
   inkscape:export-filename="blender_icons.png"
   style="display:inline;enable-background:new"
   inkscape:output_extension="org.inkscape.output.svg.inkscape"
   sodipodi:docname="blender_icons.svg"
   version="1.0"
   inkscape:version="1.2 (dc2aeda, 2022-05-15)"
   sodipodi:version="0.32"
   id="svg2"
   height="14.011233"
   width="14.011142"
   xmlns:inkscape="http://www.inkscape.org/namespaces/inkscape"
   xmlns:sodipodi="http://sodipodi.sourceforge.net/DTD/sodipodi-0.dtd"
   xmlns="http://www.w3.org/2000/svg"
   xmlns:svg="http://www.w3.org/2000/svg"
   xmlns:rdf="http://www.w3.org/1999/02/22-rdf-syntax-ns#"
   xmlns:cc="http://creativecommons.org/ns#"
   xmlns:dc="http://purl.org/dc/elements/1.1/">
  <metadata
     id="metadata34337">
    <rdf:RDF>
      <cc:Work
         rdf:about="">
        <dc:format>image/svg+xml</dc:format>
        <dc:type
           rdf:resource="http://purl.org/dc/dcmitype/StillImage" />
        <dc:title />
      </cc:Work>
    </rdf:RDF>
  </metadata>
  <sodipodi:namedview
     inkscape:pagecheckerboard="true"
     inkscape:document-rotation="0"
     pagecolor="#808080"
     bordercolor="#666666"
     borderopacity="1"
     objecttolerance="10"
     gridtolerance="10"
     guidetolerance="10"
     inkscape:pageopacity="0"
     inkscape:pageshadow="2"
     inkscape:window-width="1728"
     inkscape:window-height="1051"
     id="namedview34335"
     showgrid="false"
     inkscape:zoom="1.7115805"
     inkscape:cx="217.6351"
     inkscape:cy="369.54148"
     inkscape:window-x="767"
     inkscape:window-y="92"
     inkscape:window-maximized="0"
     inkscape:current-layer="layer4"
     inkscape:showpageshadow="2"
     inkscape:deskcolor="#808080" />
  <defs
     id="defs4" />
  <g
     inkscape:groupmode="layer"
     id="layer8"
     inkscape:label="icons"
     style="display:inline"
     transform="translate(-47.998724,-493.99014)">
    <g
       transform="translate(420.005,-159.005)"
       style="display:inline;fill:#ffffff;enable-background:new"
       id="g5937"
       inkscape:label="X-3">
      <path
         id="path5935"
         transform="translate(-462.005,96.0051)"
         d="m 103.49609,556.99023 a 0.50005,0.50005 0 0 0 -0.34375,0.15039 l -1.57031,1.57032 c -1.22858,-1.06562 -2.825838,-1.7168 -4.576171,-1.7168 -3.86007,0 -7,3.13993 -7,7 0,1.75033 0.649231,3.34954 1.714844,4.57813 l -1.568359,1.56835 a 0.50005,0.50005 0 1 0 0.707031,0.70704 l 1.568359,-1.56836 c 1.228585,1.06561 2.827793,1.71484 4.578125,1.71484 3.860071,0 7.000001,-3.13993 7.000001,-7 0,-1.75033 -0.65118,-3.34759 -1.7168,-4.57617 l 1.57032,-1.57031 a 0.50005,0.50005 0 0 0 -0.36329,-0.85743 z m -6.490231,1.00391 c 3.319631,0 6.000001,2.68037 6.000001,6 0,3.31963 -2.68037,6 -6.000001,6 -3.31963,0 -6,-2.68037 -6,-6 0,-0.88092 0.193846,-1.71405 0.533203,-2.4668 l 0.466797,0.4668 1,1 v 2 h 2 v 1 l 1,1 v 2 h 0.75 1.25 l 1,-1 1.000001,-1 v -1 l -1.000001,-1 h -2 -1 l -1,-1 h -1 l 1,-1 h 1 l 2,-2 -1,-1 h -1 l -1,-1 0.894532,-0.89453 c 0.358617,-0.0666 0.727234,-0.10547 1.105468,-0.10547 z"
         style="color:#000000;font-style:normal;font-variant:normal;font-weight:normal;font-stretch:normal;font-size:medium;line-height:normal;font-family:sans-serif;font-variant-ligatures:normal;font-variant-position:normal;font-variant-caps:normal;font-variant-numeric:normal;font-variant-alternates:normal;font-feature-settings:normal;text-indent:0;text-align:start;text-decoration:none;text-decoration-line:none;text-decoration-style:solid;text-decoration-color:#000000;letter-spacing:normal;word-spacing:normal;text-transform:none;writing-mode:lr-tb;direction:ltr;text-orientation:mixed;dominant-baseline:auto;baseline-shift:baseline;text-anchor:start;white-space:normal;shape-padding:0;clip-rule:nonzero;display:inline;overflow:visible;visibility:visible;opacity:0.99;isolation:auto;mix-blend-mode:normal;color-interpolation:sRGB;color-interpolation-filters:linearRGB;solid-color:#000000;solid-opacity:1;vector-effect:none;fill:#ffffff;fill-opacity:1;fill-rule:nonzero;stroke:none;stroke-width:1;stroke-linecap:round;stroke-linejoin:round;stroke-miterlimit:4;stroke-dasharray:none;stroke-dashoffset:0;stroke-opacity:1;marker:none;color-rendering:auto;image-rendering:auto;shape-rendering:auto;text-rendering:auto;enable-background:accumulate"
         inkscape:connector-curvature="0" />
    </g>
  </g>
</svg>
