<svg
   inkscape:export-ydpi="96"
   inkscape:export-xdpi="96"
   inkscape:export-filename="blender_icons.png"
   style="display:inline;enable-background:new"
   inkscape:output_extension="org.inkscape.output.svg.inkscape"
   sodipodi:docname="blender_icons.svg"
   version="1.0"
   inkscape:version="1.2 (dc2aeda, 2022-05-15)"
   sodipodi:version="0.32"
   id="svg2"
   height="14.000069"
   width="14.000088"
   xmlns:inkscape="http://www.inkscape.org/namespaces/inkscape"
   xmlns:sodipodi="http://sodipodi.sourceforge.net/DTD/sodipodi-0.dtd"
   xmlns="http://www.w3.org/2000/svg"
   xmlns:svg="http://www.w3.org/2000/svg"
   xmlns:rdf="http://www.w3.org/1999/02/22-rdf-syntax-ns#"
   xmlns:cc="http://creativecommons.org/ns#"
   xmlns:dc="http://purl.org/dc/elements/1.1/">
  <metadata
     id="metadata34337">
    <rdf:RDF>
      <cc:Work
         rdf:about="">
        <dc:format>image/svg+xml</dc:format>
        <dc:type
           rdf:resource="http://purl.org/dc/dcmitype/StillImage" />
        <dc:title />
      </cc:Work>
    </rdf:RDF>
  </metadata>
  <sodipodi:namedview
     inkscape:pagecheckerboard="true"
     inkscape:document-rotation="0"
     pagecolor="#808080"
     bordercolor="#666666"
     borderopacity="1"
     objecttolerance="10"
     gridtolerance="10"
     guidetolerance="10"
     inkscape:pageopacity="0"
     inkscape:pageshadow="2"
     inkscape:window-width="1728"
     inkscape:window-height="1051"
     id="namedview34335"
     showgrid="false"
     inkscape:zoom="1.7115805"
     inkscape:cx="217.6351"
     inkscape:cy="369.54148"
     inkscape:window-x="767"
     inkscape:window-y="92"
     inkscape:window-maximized="0"
     inkscape:current-layer="layer4"
     inkscape:showpageshadow="2"
     inkscape:deskcolor="#808080" />
  <defs
     id="defs4" />
  <g
     inkscape:groupmode="layer"
     id="layer8"
     inkscape:label="icons"
     style="display:inline"
     transform="translate(-258,-242)">
    <g
       style="display:inline;fill:#ffffff;enable-background:new"
       id="g22579"
       transform="matrix(-1,0,0,1,572,-63)"
       inkscape:label="L-13">
      <g
         style="opacity:1;fill:#ffffff"
         id="g22529">
        <path
           style="color:#000000;font-style:normal;font-variant:normal;font-weight:normal;font-stretch:normal;font-size:medium;line-height:normal;font-family:sans-serif;font-variant-ligatures:normal;font-variant-position:normal;font-variant-caps:normal;font-variant-numeric:normal;font-variant-alternates:normal;font-feature-settings:normal;text-indent:0;text-align:start;text-decoration:none;text-decoration-line:none;text-decoration-style:solid;text-decoration-color:#000000;letter-spacing:normal;word-spacing:normal;text-transform:none;writing-mode:lr-tb;direction:ltr;text-orientation:mixed;dominant-baseline:auto;baseline-shift:baseline;text-anchor:start;white-space:normal;shape-padding:0;clip-rule:nonzero;display:inline;overflow:visible;visibility:visible;opacity:1;isolation:auto;mix-blend-mode:normal;color-interpolation:sRGB;color-interpolation-filters:linearRGB;solid-color:#000000;solid-opacity:1;vector-effect:none;fill:#ffffff;fill-opacity:1;fill-rule:evenodd;stroke:none;stroke-width:1;stroke-linecap:round;stroke-linejoin:round;stroke-miterlimit:4;stroke-dasharray:none;stroke-dashoffset:0;stroke-opacity:1;color-rendering:auto;image-rendering:auto;shape-rendering:auto;text-rendering:auto;enable-background:accumulate"
           d="m 268.5,242 c -1.88693,0 -3.42464,1.51084 -3.48828,3.38281 -0.009,0.0385 -0.0124,0.0778 -0.0117,0.11719 -4.1e-4,0.0117 -4.1e-4,0.0234 0,0.0352 V 249 h -3.5 c -0.0381,-4.2e-4 -0.0761,0.004 -0.11328,0.0117 C 259.5129,249.07334 258,250.61174 258,252.5 c 0,1.88693 1.51084,3.42464 3.38281,3.48828 0.0385,0.009 0.0778,0.0124 0.11719,0.0117 h 7 c 0.92807,0 1.81837,-0.36915 2.47461,-1.02539 C 271.63085,254.31837 272,253.42807 272,252.5 v -7 c 7.2e-4,-0.0394 -0.003,-0.0787 -0.0117,-0.11719 C 271.92462,243.51084 270.38693,242 268.5,242 Z m 0,1 c 1.38663,0 2.5,1.11337 2.5,2.5 -4.1e-4,0.0117 -4.1e-4,0.0234 0,0.0352 V 252.5 c 0,0.66323 -0.26345,1.2986 -0.73242,1.76758 C 269.7986,254.73655 269.16323,255 268.5,255 h -7 c -1.38663,0 -2.5,-1.11337 -2.5,-2.5 0,-1.38663 1.11337,-2.5 2.5,-2.5 h 3.75 c 0.1326,-2e-5 0.25976,-0.0527 0.35352,-0.14648 l 0.25,-0.25 c 0.0938,-0.0938 0.14646,-0.22092 0.14648,-0.35352 v -3.75 c 0,-1.38663 1.11337,-2.5 2.5,-2.5 z"
           transform="matrix(-1,0,0,1,572,63)"
           id="path22488"
           inkscape:connector-curvature="0" />
      </g>
      <path
         style="color:#000000;font-style:normal;font-variant:normal;font-weight:normal;font-stretch:normal;font-size:medium;line-height:normal;font-family:sans-serif;font-variant-ligatures:normal;font-variant-position:normal;font-variant-caps:normal;font-variant-numeric:normal;font-variant-alternates:normal;font-feature-settings:normal;text-indent:0;text-align:start;text-decoration:none;text-decoration-line:none;text-decoration-style:solid;text-decoration-color:#000000;letter-spacing:normal;word-spacing:normal;text-transform:none;writing-mode:lr-tb;direction:ltr;text-orientation:mixed;dominant-baseline:auto;baseline-shift:baseline;text-anchor:start;white-space:normal;shape-padding:0;clip-rule:nonzero;display:inline;overflow:visible;visibility:visible;opacity:0.6;isolation:auto;mix-blend-mode:normal;color-interpolation:sRGB;color-interpolation-filters:linearRGB;solid-color:#000000;solid-opacity:1;vector-effect:none;fill:#ffffff;fill-opacity:1;fill-rule:nonzero;stroke:none;stroke-width:1;stroke-linecap:round;stroke-linejoin:round;stroke-miterlimit:4;stroke-dasharray:none;stroke-dashoffset:0;stroke-opacity:1;marker:none;paint-order:fill markers stroke;color-rendering:auto;image-rendering:auto;shape-rendering:auto;text-rendering:auto;enable-background:accumulate"
         d="M 303.49219,307.99219 A 0.50005,0.50005 0 0 0 303,308.5 v 6.91992 a 0.50005,0.50005 0 0 0 0.11328,0.4043 0.50005,0.50005 0 0 0 0.0156,0.0195 0.50005,0.50005 0 0 0 0.0176,0.0176 0.50005,0.50005 0 0 0 0.004,0.002 0.50005,0.50005 0 0 0 0.0332,0.0312 0.50005,0.50005 0 0 0 0.004,0.002 A 0.50005,0.50005 0 0 0 303.58203,316 H 310.5 a 0.50005,0.50005 0 1 0 0,-1 H 304 v -6.5 a 0.50005,0.50005 0 0 0 -0.50781,-0.50781 z"
         id="path22537"
         inkscape:connector-curvature="0" />
    </g>
  </g>
</svg>
