<svg
   inkscape:export-ydpi="96"
   inkscape:export-xdpi="96"
   inkscape:export-filename="blender_icons.png"
   style="display:inline;enable-background:new"
   inkscape:output_extension="org.inkscape.output.svg.inkscape"
   sodipodi:docname="blender_icons.svg"
   version="1.0"
   inkscape:version="1.2 (dc2aeda, 2022-05-15)"
   sodipodi:version="0.32"
   id="svg2"
   height="13.000251"
   width="14.014293"
   xmlns:inkscape="http://www.inkscape.org/namespaces/inkscape"
   xmlns:sodipodi="http://sodipodi.sourceforge.net/DTD/sodipodi-0.dtd"
   xmlns="http://www.w3.org/2000/svg"
   xmlns:svg="http://www.w3.org/2000/svg"
   xmlns:rdf="http://www.w3.org/1999/02/22-rdf-syntax-ns#"
   xmlns:cc="http://creativecommons.org/ns#"
   xmlns:dc="http://purl.org/dc/elements/1.1/">
  <metadata
     id="metadata34337">
    <rdf:RDF>
      <cc:Work
         rdf:about="">
        <dc:format>image/svg+xml</dc:format>
        <dc:type
           rdf:resource="http://purl.org/dc/dcmitype/StillImage" />
        <dc:title />
      </cc:Work>
    </rdf:RDF>
  </metadata>
  <sodipodi:namedview
     inkscape:pagecheckerboard="true"
     inkscape:document-rotation="0"
     pagecolor="#808080"
     bordercolor="#666666"
     borderopacity="1"
     objecttolerance="10"
     gridtolerance="10"
     guidetolerance="10"
     inkscape:pageopacity="0"
     inkscape:pageshadow="2"
     inkscape:window-width="1728"
     inkscape:window-height="1051"
     id="namedview34335"
     showgrid="false"
     inkscape:zoom="1.7115805"
     inkscape:cx="217.6351"
     inkscape:cy="369.54148"
     inkscape:window-x="767"
     inkscape:window-y="92"
     inkscape:window-maximized="0"
     inkscape:current-layer="layer4"
     inkscape:showpageshadow="2"
     inkscape:deskcolor="#808080" />
  <defs
     id="defs4" />
  <g
     inkscape:groupmode="layer"
     id="layer8"
     inkscape:label="icons"
     style="display:inline"
     transform="translate(-215.99288,-242.99999)">
    <g
       id="g143026"
       style="display:inline;enable-background:new"
       inkscape:label="L-11">
      <path
         style="color:#000000;font-style:normal;font-variant:normal;font-weight:normal;font-stretch:normal;font-size:medium;line-height:normal;font-family:sans-serif;font-variant-ligatures:normal;font-variant-position:normal;font-variant-caps:normal;font-variant-numeric:normal;font-variant-alternates:normal;font-feature-settings:normal;text-indent:0;text-align:start;text-decoration:none;text-decoration-line:none;text-decoration-style:solid;text-decoration-color:#000000;letter-spacing:normal;word-spacing:normal;text-transform:none;writing-mode:lr-tb;direction:ltr;text-orientation:mixed;dominant-baseline:auto;baseline-shift:baseline;text-anchor:start;white-space:normal;shape-padding:0;clip-rule:nonzero;display:inline;overflow:visible;visibility:visible;opacity:1;isolation:auto;mix-blend-mode:normal;color-interpolation:sRGB;color-interpolation-filters:linearRGB;solid-color:#000000;solid-opacity:1;vector-effect:none;fill:#ffffff;fill-opacity:1;fill-rule:nonzero;stroke:none;stroke-width:1;stroke-linecap:round;stroke-linejoin:round;stroke-miterlimit:4;stroke-dasharray:none;stroke-dashoffset:0;stroke-opacity:1;color-rendering:auto;image-rendering:auto;shape-rendering:auto;text-rendering:auto;enable-background:accumulate"
         d="m 219.50391,243 a 0.50005,0.50005 0 0 0 -0.45118,0.27734 C 218.38224,244.61833 217.33333,245 216.5,245 a 0.50005,0.50005 0 1 0 0,1 c 1.00319,0 2.15225,-0.6005 3,-1.7832 0.82397,1.14952 1.9314,1.74461 2.91406,1.77734 a 0.50005,0.50005 0 0 0 0.002,0 0.50005,0.50005 0 0 0 0.084,0.006 0.50005,0.50005 0 0 0 0.0996,-0.008 c 0.97927,-0.0378 2.08023,-0.63118 2.90039,-1.77539 0.84775,1.1827 1.99681,1.7832 3,1.7832 a 0.50005,0.50005 0 1 0 0,-1 c -0.83333,0 -1.88224,-0.38167 -2.55273,-1.72266 A 0.50005,0.50005 0 0 0 225.50391,243 a 0.50005,0.50005 0 0 0 -0.45118,0.27734 C 224.38224,244.61833 223.33333,245 222.5,245 c -0.83333,0 -1.88224,-0.38167 -2.55273,-1.72266 A 0.50005,0.50005 0 0 0 219.50391,243 Z m 1,5 a 0.50005,0.50005 0 0 0 -0.45118,0.27734 C 219.38224,249.61833 218.33333,250 217.5,250 a 0.50005,0.50005 0 1 0 0,1 c 1.00319,0 2.15225,-0.6005 3,-1.7832 0.82397,1.14952 1.9314,1.74461 2.91406,1.77734 a 0.50005,0.50005 0 0 0 0.002,0 0.50005,0.50005 0 0 0 0.084,0.006 0.50005,0.50005 0 0 0 0.0859,-0.006 0.50005,0.50005 0 0 0 0.0137,-0.002 c 0.97927,-0.0378 2.08023,-0.63118 2.90039,-1.77539 0.84775,1.1827 1.99681,1.7832 3,1.7832 a 0.50005,0.50005 0 1 0 0,-1 c -0.83333,0 -1.88224,-0.38167 -2.55273,-1.72266 A 0.50005,0.50005 0 0 0 226.50391,248 a 0.50005,0.50005 0 0 0 -0.45118,0.27734 C 225.38224,249.61833 224.33333,250 223.5,250 c -0.83333,0 -1.88224,-0.38167 -2.55273,-1.72266 A 0.50005,0.50005 0 0 0 220.50391,248 Z m -1,5 a 0.50005,0.50005 0 0 0 -0.45118,0.27734 C 218.38224,254.61833 217.33333,255 216.5,255 a 0.50005,0.50005 0 1 0 0,1 c 1.00319,0 2.15225,-0.6005 3,-1.7832 0.82397,1.14952 1.9314,1.74461 2.91406,1.77734 a 0.50005,0.50005 0 0 0 0.002,0 0.50005,0.50005 0 0 0 0.084,0.006 0.50005,0.50005 0 0 0 0.0996,-0.008 c 0.97927,-0.0378 2.08023,-0.63118 2.90039,-1.77539 0.84775,1.1827 1.99681,1.7832 3,1.7832 a 0.50005,0.50005 0 1 0 0,-1 c -0.83333,0 -1.88224,-0.38167 -2.55273,-1.72266 A 0.50005,0.50005 0 0 0 225.50391,253 a 0.50005,0.50005 0 0 0 -0.45118,0.27734 C 224.38224,254.61833 223.33333,255 222.5,255 c -0.83333,0 -1.88224,-0.38167 -2.55273,-1.72266 A 0.50005,0.50005 0 0 0 219.50391,253 Z"
         id="path21858"
         inkscape:connector-curvature="0" />
    </g>
  </g>
</svg>
