<svg
   inkscape:export-ydpi="96"
   inkscape:export-xdpi="96"
   inkscape:export-filename="blender_icons.png"
   style="display:inline;enable-background:new"
   inkscape:output_extension="org.inkscape.output.svg.inkscape"
   sodipodi:docname="blender_icons.svg"
   version="1.0"
   inkscape:version="1.2 (dc2aeda, 2022-05-15)"
   sodipodi:version="0.32"
   id="svg2"
   height="14.008"
   width="14.00781"
   xmlns:inkscape="http://www.inkscape.org/namespaces/inkscape"
   xmlns:sodipodi="http://sodipodi.sourceforge.net/DTD/sodipodi-0.dtd"
   xmlns="http://www.w3.org/2000/svg"
   xmlns:svg="http://www.w3.org/2000/svg"
   xmlns:rdf="http://www.w3.org/1999/02/22-rdf-syntax-ns#"
   xmlns:cc="http://creativecommons.org/ns#"
   xmlns:dc="http://purl.org/dc/elements/1.1/">
  <metadata
     id="metadata34337">
    <rdf:RDF>
      <cc:Work
         rdf:about="">
        <dc:format>image/svg+xml</dc:format>
        <dc:type
           rdf:resource="http://purl.org/dc/dcmitype/StillImage" />
        <dc:title />
      </cc:Work>
    </rdf:RDF>
  </metadata>
  <sodipodi:namedview
     inkscape:pagecheckerboard="true"
     inkscape:document-rotation="0"
     pagecolor="#808080"
     bordercolor="#666666"
     borderopacity="1"
     objecttolerance="10"
     gridtolerance="10"
     guidetolerance="10"
     inkscape:pageopacity="0"
     inkscape:pageshadow="2"
     inkscape:window-width="1728"
     inkscape:window-height="1051"
     id="namedview34335"
     showgrid="false"
     inkscape:zoom="1.7115805"
     inkscape:cx="217.6351"
     inkscape:cy="369.54148"
     inkscape:window-x="767"
     inkscape:window-y="92"
     inkscape:window-maximized="0"
     inkscape:current-layer="layer4"
     inkscape:showpageshadow="2"
     inkscape:deskcolor="#808080" />
  <defs
     id="defs4" />
  <g
     inkscape:groupmode="layer"
     id="layer8"
     inkscape:label="icons"
     style="display:inline"
     transform="translate(-26.99219,-242)">
    <g
       style="display:inline;fill:#ffffff;enable-background:new"
       id="g22356"
       transform="translate(-336,-63)"
       inkscape:label="L-2">
      <path
         inkscape:export-ydpi="96"
         inkscape:export-xdpi="96"
         inkscape:export-filename="blender_icons.png"
         sodipodi:nodetypes="ccccc"
         id="path22236"
         d="m 363.5,308.5 3,-3 h 6 l -3,3 z"
         style="display:inline;opacity:1;vector-effect:none;fill:#ffffff;fill-opacity:1;stroke:#ffffff;stroke-width:1;stroke-linecap:square;stroke-linejoin:round;stroke-miterlimit:4;stroke-dasharray:none;stroke-dashoffset:0;stroke-opacity:1;marker:none;enable-background:new"
         inkscape:connector-curvature="0" />
      <path
         style="color:#000000;font-style:normal;font-variant:normal;font-weight:normal;font-stretch:normal;font-size:medium;line-height:normal;font-family:sans-serif;font-variant-ligatures:normal;font-variant-position:normal;font-variant-caps:normal;font-variant-numeric:normal;font-variant-alternates:normal;font-feature-settings:normal;text-indent:0;text-align:start;text-decoration:none;text-decoration-line:none;text-decoration-style:solid;text-decoration-color:#000000;letter-spacing:normal;word-spacing:normal;text-transform:none;writing-mode:lr-tb;direction:ltr;text-orientation:mixed;dominant-baseline:auto;baseline-shift:baseline;text-anchor:start;white-space:normal;shape-padding:0;clip-rule:nonzero;display:inline;overflow:visible;visibility:visible;opacity:1;isolation:auto;mix-blend-mode:normal;color-interpolation:sRGB;color-interpolation-filters:linearRGB;solid-color:#000000;solid-opacity:1;vector-effect:none;fill:#ffffff;fill-opacity:1;fill-rule:nonzero;stroke:none;stroke-width:1;stroke-linecap:square;stroke-linejoin:round;stroke-miterlimit:4;stroke-dasharray:none;stroke-dashoffset:0;stroke-opacity:1;marker:none;color-rendering:auto;image-rendering:auto;shape-rendering:auto;text-rendering:auto;enable-background:new"
         d="m 366.5,305 a 0.50005,0.50005 0 0 0 -0.35352,0.14648 l -3,3 A 0.50005,0.50005 0 0 0 363.5,309 h 6 a 0.50005,0.50005 0 0 0 0.35352,-0.14648 l 3,-3 A 0.50005,0.50005 0 0 0 372.5,305 Z m 0.20703,1 h 4.58594 l -2,2 h -4.58594 z m 9.77735,3 a 0.50005,0.50005 0 0 0 -0.3379,0.14648 l -3,3 A 0.50005,0.50005 0 0 0 373,312.5 v 6 a 0.50005,0.50005 0 0 0 0.85352,0.35352 l 3,-3 A 0.50005,0.50005 0 0 0 377,315.5 v -6 A 0.50005,0.50005 0 0 0 376.48438,309 Z M 376,310.70703 v 4.58594 l -2,2 v -4.58594 z M 369.5,312 l -6.00781,0.008 a 0.50005,0.50005 0 0 0 -0.5,0.5 v 6 a 0.50005,0.50005 0 0 0 0.5,0.5 h 6 a 0.50005,0.50005 0 0 0 0.5,-0.5 L 370,312.5 a 0.50005,0.50005 0 0 0 -0.5,-0.5 z m -0.5,1 -0.008,5.00781 h -5 v -5.00195 z"
         id="path22324"
         inkscape:connector-curvature="0" />
    </g>
  </g>
</svg>
