<svg
   inkscape:export-ydpi="96"
   inkscape:export-xdpi="96"
   inkscape:export-filename="blender_icons.png"
   style="display:inline;enable-background:new"
   inkscape:output_extension="org.inkscape.output.svg.inkscape"
   sodipodi:docname="blender_icons.svg"
   version="1.0"
   inkscape:version="1.2 (dc2aeda, 2022-05-15)"
   sodipodi:version="0.32"
   id="svg2"
   height="14.024408"
   width="14.025666"
   xmlns:inkscape="http://www.inkscape.org/namespaces/inkscape"
   xmlns:sodipodi="http://sodipodi.sourceforge.net/DTD/sodipodi-0.dtd"
   xmlns="http://www.w3.org/2000/svg"
   xmlns:svg="http://www.w3.org/2000/svg"
   xmlns:rdf="http://www.w3.org/1999/02/22-rdf-syntax-ns#"
   xmlns:cc="http://creativecommons.org/ns#"
   xmlns:dc="http://purl.org/dc/elements/1.1/">
  <metadata
     id="metadata34337">
    <rdf:RDF>
      <cc:Work
         rdf:about="">
        <dc:format>image/svg+xml</dc:format>
        <dc:type
           rdf:resource="http://purl.org/dc/dcmitype/StillImage" />
        <dc:title />
      </cc:Work>
    </rdf:RDF>
  </metadata>
  <sodipodi:namedview
     inkscape:pagecheckerboard="true"
     inkscape:document-rotation="0"
     pagecolor="#808080"
     bordercolor="#666666"
     borderopacity="1"
     objecttolerance="10"
     gridtolerance="10"
     guidetolerance="10"
     inkscape:pageopacity="0"
     inkscape:pageshadow="2"
     inkscape:window-width="1728"
     inkscape:window-height="1051"
     id="namedview34335"
     showgrid="false"
     inkscape:zoom="1.7115805"
     inkscape:cx="217.6351"
     inkscape:cy="369.54148"
     inkscape:window-x="767"
     inkscape:window-y="92"
     inkscape:window-maximized="0"
     inkscape:current-layer="layer4"
     inkscape:showpageshadow="2"
     inkscape:deskcolor="#808080" />
  <defs
     id="defs4" />
  <g
     inkscape:groupmode="layer"
     id="layer8"
     inkscape:label="icons"
     style="display:inline"
     transform="translate(-173.99278,-262.99403)">
    <g
       style="display:inline;enable-background:new"
       id="g27915"
       inkscape:label="M-9">
      <path
         style="color:#000000;font-style:normal;font-variant:normal;font-weight:normal;font-stretch:normal;font-size:medium;line-height:normal;font-family:sans-serif;font-variant-ligatures:normal;font-variant-position:normal;font-variant-caps:normal;font-variant-numeric:normal;font-variant-alternates:normal;font-feature-settings:normal;text-indent:0;text-align:start;text-decoration:none;text-decoration-line:none;text-decoration-style:solid;text-decoration-color:#000000;letter-spacing:normal;word-spacing:normal;text-transform:none;writing-mode:lr-tb;direction:ltr;text-orientation:mixed;dominant-baseline:auto;baseline-shift:baseline;text-anchor:start;white-space:normal;shape-padding:0;clip-rule:nonzero;display:inline;overflow:visible;visibility:visible;opacity:1;isolation:auto;mix-blend-mode:normal;color-interpolation:sRGB;color-interpolation-filters:linearRGB;solid-color:#000000;solid-opacity:1;vector-effect:none;fill:#ffffff;fill-opacity:1;fill-rule:nonzero;stroke:none;stroke-width:1;stroke-linecap:round;stroke-linejoin:round;stroke-miterlimit:4;stroke-dasharray:none;stroke-dashoffset:0;stroke-opacity:1;color-rendering:auto;image-rendering:auto;shape-rendering:auto;text-rendering:auto;enable-background:accumulate"
         d="m 180.5,263 c -0.27613,3e-5 -0.49997,0.22387 -0.5,0.5 v 4 c 3e-5,0.27613 0.22387,0.49997 0.5,0.5 h 1.5 v 0.5 c 3e-5,0.27613 0.22387,0.49997 0.5,0.5 h 1.5 v 1.5 c 3e-5,0.27613 0.22387,0.49997 0.5,0.5 h 3 c 0.27613,-3e-5 0.49997,-0.22387 0.5,-0.5 v -7 c -3e-5,-0.27613 -0.22387,-0.49997 -0.5,-0.5 z m 0.5,1 h 6 v 6 h -2 v -1.5 c -3e-5,-0.27613 -0.22387,-0.49997 -0.5,-0.5 H 183 v -0.5 c -3e-5,-0.27613 -0.22387,-0.49997 -0.5,-0.5 H 181 Z"
         id="path27886"
         inkscape:connector-curvature="0"
         sodipodi:nodetypes="cccccccccccccccccccccccccc" />
      <path
         style="color:#000000;font-style:normal;font-variant:normal;font-weight:normal;font-stretch:normal;font-size:medium;line-height:normal;font-family:sans-serif;font-variant-ligatures:normal;font-variant-position:normal;font-variant-caps:normal;font-variant-numeric:normal;font-variant-alternates:normal;font-feature-settings:normal;text-indent:0;text-align:start;text-decoration:none;text-decoration-line:none;text-decoration-style:solid;text-decoration-color:#000000;letter-spacing:normal;word-spacing:normal;text-transform:none;writing-mode:lr-tb;direction:ltr;text-orientation:mixed;dominant-baseline:auto;baseline-shift:baseline;text-anchor:start;white-space:normal;shape-padding:0;clip-rule:nonzero;display:inline;overflow:visible;visibility:visible;opacity:0.7;isolation:auto;mix-blend-mode:normal;color-interpolation:sRGB;color-interpolation-filters:linearRGB;solid-color:#000000;solid-opacity:1;vector-effect:none;fill:#ffffff;fill-opacity:1;fill-rule:nonzero;stroke:none;stroke-width:1;stroke-linecap:round;stroke-linejoin:round;stroke-miterlimit:4;stroke-dasharray:none;stroke-dashoffset:0;stroke-opacity:1;color-rendering:auto;image-rendering:auto;shape-rendering:auto;text-rendering:auto;enable-background:accumulate"
         d="m 176.50781,262.99414 a 0.50005,0.50005 0 0 0 -0.45508,0.72852 l 1,2 a 0.50005,0.50005 0 1 0 0.89454,-0.44532 l -1,-2 a 0.50005,0.50005 0 0 0 -0.43946,-0.2832 z m -2.02539,3.00195 a 0.50005,0.50005 0 0 0 -0.20508,0.95118 l 2,1 a 0.50005,0.50005 0 1 0 0.44532,-0.89454 l -2,-1 a 0.50005,0.50005 0 0 0 -0.24024,-0.0566 z m 11,6 a 0.50005,0.50005 0 0 0 -0.20508,0.95118 l 2,1 a 0.50005,0.50005 0 1 0 0.44532,-0.89454 l -2,-1 a 0.50005,0.50005 0 0 0 -0.24024,-0.0566 z m -0.97461,1.99805 a 0.50005,0.50005 0 0 0 -0.45508,0.72852 l 1,2 a 0.50005,0.50005 0 1 0 0.89454,-0.44532 l -1,-2 a 0.50005,0.50005 0 0 0 -0.43946,-0.2832 z"
         id="path27898"
         inkscape:connector-curvature="0" />
      <path
         style="color:#000000;font-style:normal;font-variant:normal;font-weight:normal;font-stretch:normal;font-size:medium;line-height:normal;font-family:sans-serif;font-variant-ligatures:normal;font-variant-position:normal;font-variant-caps:normal;font-variant-numeric:normal;font-variant-alternates:normal;font-feature-settings:normal;text-indent:0;text-align:start;text-decoration:none;text-decoration-line:none;text-decoration-style:solid;text-decoration-color:#000000;letter-spacing:normal;word-spacing:normal;text-transform:none;writing-mode:lr-tb;direction:ltr;text-orientation:mixed;dominant-baseline:auto;baseline-shift:baseline;text-anchor:start;white-space:normal;shape-padding:0;clip-rule:nonzero;display:inline;overflow:visible;visibility:visible;opacity:1;isolation:auto;mix-blend-mode:normal;color-interpolation:sRGB;color-interpolation-filters:linearRGB;solid-color:#000000;solid-opacity:1;vector-effect:none;fill:#ffffff;fill-opacity:1;fill-rule:nonzero;stroke:none;stroke-width:1;stroke-linecap:round;stroke-linejoin:round;stroke-miterlimit:4;stroke-dasharray:none;stroke-dashoffset:0;stroke-opacity:1;color-rendering:auto;image-rendering:auto;shape-rendering:auto;text-rendering:auto;enable-background:accumulate"
         d="m 174.5,269 a 0.50005,0.50005 0 0 0 -0.5,0.5 v 7 a 0.50005,0.50005 0 0 0 0.5,0.5 h 7 a 0.50005,0.50005 0 0 0 0.5,-0.5 l -0.008,-4 a 0.50005,0.50005 0 0 0 -0.5,-0.5 h -1.5 v -1.5 a 0.50005,0.50005 0 0 0 -0.5,-0.5 h -1.4961 L 178,269.50391 A 0.50005,0.50005 0 0 0 177.5,269 Z m 0.5,1 h 1.99609 l -0.004,0.49609 a 0.50005,0.50005 0 0 0 0.5,0.50391 h 1.5 v 1.5 a 0.50005,0.50005 0 0 0 0.5,0.5 h 1.5 l 0.008,3 h -6 z"
         id="path10946"
         inkscape:connector-curvature="0" />
    </g>
  </g>
</svg>
