<svg
   inkscape:export-ydpi="96"
   inkscape:export-xdpi="96"
   inkscape:export-filename="blender_icons.png"
   style="display:inline;enable-background:new"
   inkscape:output_extension="org.inkscape.output.svg.inkscape"
   sodipodi:docname="blender_icons.svg"
   version="1.0"
   inkscape:version="1.2 (dc2aeda, 2022-05-15)"
   sodipodi:version="0.32"
   id="svg2"
   height="13.9983"
   width="9.9982262"
   xmlns:inkscape="http://www.inkscape.org/namespaces/inkscape"
   xmlns:sodipodi="http://sodipodi.sourceforge.net/DTD/sodipodi-0.dtd"
   xmlns="http://www.w3.org/2000/svg"
   xmlns:svg="http://www.w3.org/2000/svg"
   xmlns:rdf="http://www.w3.org/1999/02/22-rdf-syntax-ns#"
   xmlns:cc="http://creativecommons.org/ns#"
   xmlns:dc="http://purl.org/dc/elements/1.1/">
  <metadata
     id="metadata34337">
    <rdf:RDF>
      <cc:Work
         rdf:about="">
        <dc:format>image/svg+xml</dc:format>
        <dc:type
           rdf:resource="http://purl.org/dc/dcmitype/StillImage" />
        <dc:title />
      </cc:Work>
    </rdf:RDF>
  </metadata>
  <sodipodi:namedview
     inkscape:pagecheckerboard="true"
     inkscape:document-rotation="0"
     pagecolor="#808080"
     bordercolor="#666666"
     borderopacity="1"
     objecttolerance="10"
     gridtolerance="10"
     guidetolerance="10"
     inkscape:pageopacity="0"
     inkscape:pageshadow="2"
     inkscape:window-width="1728"
     inkscape:window-height="1051"
     id="namedview34335"
     showgrid="false"
     inkscape:zoom="1.7115805"
     inkscape:cx="217.6351"
     inkscape:cy="369.54148"
     inkscape:window-x="767"
     inkscape:window-y="92"
     inkscape:window-maximized="0"
     inkscape:current-layer="layer4"
     inkscape:showpageshadow="2"
     inkscape:deskcolor="#808080" />
  <defs
     id="defs4" />
  <g
     inkscape:groupmode="layer"
     id="layer8"
     inkscape:label="icons"
     style="display:inline"
     transform="translate(-50.000838,-242)">
    <g
       style="display:inline;fill:#ffffff;enable-background:new"
       id="g22284"
       transform="translate(-1.85367e-6,-42)"
       inkscape:label="L-3">
      <path
         style="color:#000000;font-style:normal;font-variant:normal;font-weight:normal;font-stretch:normal;font-size:medium;line-height:normal;font-family:sans-serif;font-variant-ligatures:normal;font-variant-position:normal;font-variant-caps:normal;font-variant-numeric:normal;font-variant-alternates:normal;font-feature-settings:normal;text-indent:0;text-align:start;text-decoration:none;text-decoration-line:none;text-decoration-style:solid;text-decoration-color:#000000;letter-spacing:normal;word-spacing:normal;text-transform:none;writing-mode:lr-tb;direction:ltr;text-orientation:mixed;dominant-baseline:auto;baseline-shift:baseline;text-anchor:start;white-space:normal;shape-padding:0;clip-rule:nonzero;display:inline;overflow:visible;visibility:visible;opacity:1;isolation:auto;mix-blend-mode:normal;color-interpolation:sRGB;color-interpolation-filters:linearRGB;solid-color:#000000;solid-opacity:1;vector-effect:none;fill:#ffffff;fill-opacity:1;fill-rule:nonzero;stroke:none;stroke-width:1;stroke-linecap:round;stroke-linejoin:round;stroke-miterlimit:4;stroke-dasharray:none;stroke-dashoffset:0;stroke-opacity:1;marker:none;color-rendering:auto;image-rendering:auto;shape-rendering:auto;text-rendering:auto;enable-background:new"
         d="m 54.75,284 a 0.50004997,0.50004997 0 0 0 -0.431641,0.24805 l -3.646484,6.25 a 0.50004997,0.50004997 0 0 0 -0.002,0.002 c -1.211575,2.0985 -0.741006,4.77251 1.115234,6.33008 1.856239,1.55756 4.573449,1.55756 6.429688,0 1.85624,-1.55757 2.326809,-4.23158 1.115234,-6.33008 a 0.50004997,0.50004997 0 0 0 -0.002,-0.002 l -3.646484,-6.25 A 0.50004997,0.50004997 0 0 0 55.25,284 Z m 0.25,1.06445 3.464844,5.9375 c 0.970958,1.6837 0.594513,3.81305 -0.894532,5.0625 -1.489569,1.2499 -3.651055,1.2499 -5.140624,0 -1.489045,-1.24945 -1.86549,-3.3788 -0.894532,-5.0625 V 291 Z m -0.511719,2.92969 a 0.50004997,0.50004997 0 0 0 -0.429687,0.27148 l -1.697266,3.20704 c -0.166111,0.28617 -0.283806,0.59778 -0.349609,0.92187 a 0.50005872,0.50005872 0 1 0 0.980469,0.19727 c 0.04414,-0.2174 0.122796,-0.42496 0.234374,-0.61719 a 0.50004997,0.50004997 0 0 0 0.0098,-0.0176 l 1.705078,-3.22265 a 0.50004997,0.50004997 0 0 0 -0.453125,-0.74024 z"
         id="path22264"
         inkscape:connector-curvature="0" />
    </g>
  </g>
</svg>
