<svg
   inkscape:export-ydpi="96"
   inkscape:export-xdpi="96"
   inkscape:export-filename="blender_icons.png"
   style="display:inline;enable-background:new"
   inkscape:output_extension="org.inkscape.output.svg.inkscape"
   sodipodi:docname="blender_icons.svg"
   version="1.0"
   inkscape:version="1.2 (dc2aeda, 2022-05-15)"
   sodipodi:version="0.32"
   id="svg2"
   height="14.00781"
   width="14.00781"
   xmlns:inkscape="http://www.inkscape.org/namespaces/inkscape"
   xmlns:sodipodi="http://sodipodi.sourceforge.net/DTD/sodipodi-0.dtd"
   xmlns="http://www.w3.org/2000/svg"
   xmlns:svg="http://www.w3.org/2000/svg"
   xmlns:rdf="http://www.w3.org/1999/02/22-rdf-syntax-ns#"
   xmlns:cc="http://creativecommons.org/ns#"
   xmlns:dc="http://purl.org/dc/elements/1.1/">
  <metadata
     id="metadata34337">
    <rdf:RDF>
      <cc:Work
         rdf:about="">
        <dc:format>image/svg+xml</dc:format>
        <dc:type
           rdf:resource="http://purl.org/dc/dcmitype/StillImage" />
        <dc:title />
      </cc:Work>
    </rdf:RDF>
  </metadata>
  <sodipodi:namedview
     inkscape:pagecheckerboard="true"
     inkscape:document-rotation="0"
     pagecolor="#808080"
     bordercolor="#666666"
     borderopacity="1"
     objecttolerance="10"
     gridtolerance="10"
     guidetolerance="10"
     inkscape:pageopacity="0"
     inkscape:pageshadow="2"
     inkscape:window-width="1728"
     inkscape:window-height="1051"
     id="namedview34335"
     showgrid="false"
     inkscape:zoom="1.7115805"
     inkscape:cx="217.6351"
     inkscape:cy="369.54148"
     inkscape:window-x="767"
     inkscape:window-y="92"
     inkscape:window-maximized="0"
     inkscape:current-layer="layer4"
     inkscape:showpageshadow="2"
     inkscape:deskcolor="#808080" />
  <defs
     id="defs4" />
  <g
     inkscape:groupmode="layer"
     id="layer8"
     inkscape:label="icons"
     style="display:inline"
     transform="translate(-195,-137.00781)">
    <g
       style="display:inline;opacity:0.6;fill:#ffffff;enable-background:new"
       id="g14837"
       transform="translate(-210,-315)"
       inkscape:label="G-10">
      <path
         inkscape:connector-curvature="0"
         id="path14829"
         d="m 415.5,452.00781 a 0.50005018,0.50005018 0 0 0 -0.5,0.5 v 3.00781 a 0.50005018,0.50005018 0 0 0 0.5,0.5 c 1.00252,0 2.00529,0 3.00781,0 a 0.50005018,0.50005018 0 0 0 0.5,-0.5 v -3.00781 a 0.50005018,0.50005018 0 0 0 -0.5,-0.5 c -1.00251,0 -2.00529,0 -3.00781,0 z m 0.5,1 c 0.66922,0 1.33859,0 2.00781,0 v 2.00781 c -0.66921,0 -1.33859,10e-6 -2.00781,0 z m -10.5,9 a 0.50005018,0.50005018 0 0 0 -0.5,0.5 v 3.00781 a 0.50005018,0.50005018 0 0 0 0.5,0.5 c 1.00252,0 2.00529,0 3.00781,0 a 0.50005018,0.50005018 0 0 0 0.5,-0.5 v -3.00781 a 0.50005018,0.50005018 0 0 0 -0.5,-0.5 c -1.00251,0 -2.00529,0 -3.00781,0 z m 0.5,1 c 0.66922,0 1.33859,0 2.00781,0 v 2.00781 c -0.66921,0 -1.33859,10e-6 -2.00781,0 z"
         style="color:#000000;font-style:normal;font-variant:normal;font-weight:normal;font-stretch:normal;font-size:medium;line-height:normal;font-family:sans-serif;font-variant-ligatures:normal;font-variant-position:normal;font-variant-caps:normal;font-variant-numeric:normal;font-variant-alternates:normal;font-feature-settings:normal;text-indent:0;text-align:start;text-decoration:none;text-decoration-line:none;text-decoration-style:solid;text-decoration-color:#000000;letter-spacing:normal;word-spacing:normal;text-transform:none;writing-mode:lr-tb;direction:ltr;text-orientation:mixed;dominant-baseline:auto;baseline-shift:baseline;text-anchor:start;white-space:normal;shape-padding:0;clip-rule:nonzero;display:inline;overflow:visible;visibility:visible;opacity:1;isolation:auto;mix-blend-mode:normal;color-interpolation:sRGB;color-interpolation-filters:linearRGB;solid-color:#000000;solid-opacity:1;vector-effect:none;fill:#ffffff;fill-opacity:1;fill-rule:nonzero;stroke:none;stroke-width:1;stroke-linecap:round;stroke-linejoin:round;stroke-miterlimit:4;stroke-dasharray:none;stroke-dashoffset:7.4;stroke-opacity:1;color-rendering:auto;image-rendering:auto;shape-rendering:auto;text-rendering:auto;enable-background:new" />
      <path
         inkscape:connector-curvature="0"
         id="path22198"
         d="m 411.50391,454 a 0.50005,0.50005 0 0 0 -0.35743,0.14648 l -1,1 a 0.50005,0.50005 0 1 0 0.70704,0.70704 l 0.85156,-0.85157 0.78515,0.006 a 0.50005,0.50005 0 1 0 0.006,-1 z m -3.01368,2.99609 a 0.50005,0.50005 0 0 0 -0.34375,0.15039 l -1,1 A 0.50005,0.50005 0 0 0 407,458.5 v 1.00781 a 0.50005,0.50005 0 1 0 1,0 v -0.80078 l 0.85352,-0.85351 a 0.50005,0.50005 0 0 0 -0.36329,-0.85743 z m 7.99415,0.9961 A 0.50005,0.50005 0 0 0 415.99219,458.5 v 0.80078 l -0.85352,0.85352 a 0.50005,0.50005 0 1 0 0.70703,0.70703 l 1,-1 a 0.50005,0.50005 0 0 0 0.14649,-0.35352 V 458.5 a 0.50005,0.50005 0 0 0 -0.50781,-0.50781 z m -3.00196,4.00976 a 0.50005,0.50005 0 0 0 -0.34375,0.15235 l -0.85156,0.85156 -0.7832,-0.006 a 0.50005,0.50005 0 1 0 -0.008,1 l 0.99219,0.008 a 0.50005,0.50005 0 0 0 0.35742,-0.14648 l 1,-1 a 0.50005,0.50005 0 0 0 -0.36328,-0.85938 z"
         style="color:#000000;font-style:normal;font-variant:normal;font-weight:normal;font-stretch:normal;font-size:medium;line-height:normal;font-family:sans-serif;font-variant-ligatures:normal;font-variant-position:normal;font-variant-caps:normal;font-variant-numeric:normal;font-variant-alternates:normal;font-feature-settings:normal;text-indent:0;text-align:start;text-decoration:none;text-decoration-line:none;text-decoration-style:solid;text-decoration-color:#000000;letter-spacing:normal;word-spacing:normal;text-transform:none;writing-mode:lr-tb;direction:ltr;text-orientation:mixed;dominant-baseline:auto;baseline-shift:baseline;text-anchor:start;white-space:normal;shape-padding:0;clip-rule:nonzero;display:inline;overflow:visible;visibility:visible;opacity:0.6;isolation:auto;mix-blend-mode:normal;color-interpolation:sRGB;color-interpolation-filters:linearRGB;solid-color:#000000;solid-opacity:1;vector-effect:none;fill:#ffffff;fill-opacity:1;fill-rule:nonzero;stroke:none;stroke-width:1px;stroke-linecap:round;stroke-linejoin:round;stroke-miterlimit:4;stroke-dasharray:none;stroke-dashoffset:0;stroke-opacity:1;color-rendering:auto;image-rendering:auto;shape-rendering:auto;text-rendering:auto;enable-background:new" />
    </g>
  </g>
</svg>
