<svg
   inkscape:export-ydpi="96"
   inkscape:export-xdpi="96"
   inkscape:export-filename="blender_icons.png"
   style="display:inline;enable-background:new"
   inkscape:output_extension="org.inkscape.output.svg.inkscape"
   sodipodi:docname="blender_icons.svg"
   version="1.0"
   inkscape:version="1.2 (dc2aeda, 2022-05-15)"
   sodipodi:version="0.32"
   id="svg2"
   height="13.105625"
   width="13.117418"
   xmlns:inkscape="http://www.inkscape.org/namespaces/inkscape"
   xmlns:sodipodi="http://sodipodi.sourceforge.net/DTD/sodipodi-0.dtd"
   xmlns="http://www.w3.org/2000/svg"
   xmlns:svg="http://www.w3.org/2000/svg"
   xmlns:rdf="http://www.w3.org/1999/02/22-rdf-syntax-ns#"
   xmlns:cc="http://creativecommons.org/ns#"
   xmlns:dc="http://purl.org/dc/elements/1.1/">
  <metadata
     id="metadata34337">
    <rdf:RDF>
      <cc:Work
         rdf:about="">
        <dc:format>image/svg+xml</dc:format>
        <dc:type
           rdf:resource="http://purl.org/dc/dcmitype/StillImage" />
        <dc:title />
      </cc:Work>
    </rdf:RDF>
  </metadata>
  <sodipodi:namedview
     inkscape:pagecheckerboard="true"
     inkscape:document-rotation="0"
     pagecolor="#808080"
     bordercolor="#666666"
     borderopacity="1"
     objecttolerance="10"
     gridtolerance="10"
     guidetolerance="10"
     inkscape:pageopacity="0"
     inkscape:pageshadow="2"
     inkscape:window-width="1728"
     inkscape:window-height="1051"
     id="namedview34335"
     showgrid="false"
     inkscape:zoom="1.7115805"
     inkscape:cx="217.6351"
     inkscape:cy="369.54148"
     inkscape:window-x="767"
     inkscape:window-y="92"
     inkscape:window-maximized="0"
     inkscape:current-layer="layer4"
     inkscape:showpageshadow="2"
     inkscape:deskcolor="#808080" />
  <defs
     id="defs4" />
  <g
     inkscape:groupmode="layer"
     id="layer8"
     inkscape:label="icons"
     style="display:inline"
     transform="translate(-405.93945,-242.95474)">
    <g
       id="g143023"
       style="display:inline;enable-background:new"
       inkscape:label="L-20">
      <path
         style="color:#000000;font-style:normal;font-variant:normal;font-weight:normal;font-stretch:normal;font-size:medium;line-height:normal;font-family:sans-serif;font-variant-ligatures:normal;font-variant-position:normal;font-variant-caps:normal;font-variant-numeric:normal;font-variant-alternates:normal;font-feature-settings:normal;text-indent:0;text-align:start;text-decoration:none;text-decoration-line:none;text-decoration-style:solid;text-decoration-color:#000000;letter-spacing:normal;word-spacing:normal;text-transform:none;writing-mode:lr-tb;direction:ltr;text-orientation:mixed;dominant-baseline:auto;baseline-shift:baseline;text-anchor:start;white-space:normal;shape-padding:0;clip-rule:nonzero;display:inline;overflow:visible;visibility:visible;opacity:1;isolation:auto;mix-blend-mode:normal;color-interpolation:sRGB;color-interpolation-filters:linearRGB;solid-color:#000000;solid-opacity:1;vector-effect:none;fill:#ffffff;fill-opacity:1;fill-rule:nonzero;stroke:none;stroke-width:1.1;stroke-linecap:round;stroke-linejoin:round;stroke-miterlimit:4;stroke-dasharray:none;stroke-dashoffset:0;stroke-opacity:1;marker:none;color-rendering:auto;image-rendering:auto;shape-rendering:auto;text-rendering:auto;enable-background:accumulate"
         d="m 416.49023,242.95508 a 0.55005501,0.55005501 0 0 0 -0.55078,0.55078 v 0.77539 l -0.44922,0.45117 -0.61132,-0.61133 a 0.55005501,0.55005501 0 0 0 -0.38868,-0.16211 h -1.77148 l -0.83984,-0.83789 a 0.55005501,0.55005501 0 0 0 -0.77735,0 l -1,1 a 0.55005501,0.55005501 0 0 0 -0.16211,0.38868 v 1.77148 l -0.67773,0.67773 h -0.77149 a 0.55005501,0.55005501 0 0 0 -0.39062,0.16211 l -0.83789,0.8418 h -0.77149 a 0.55005501,0.55005501 0 0 0 -0.55078,0.55078 v 2.00391 a 0.55005501,0.55005501 0 0 0 0.55078,0.55078 h 0.77344 l 0.67578,0.67383 v 0.54492 l -0.67578,0.68164 -0.76758,-0.008 a 0.55005501,0.55005501 0 0 0 -0.55664,0.54883 v 1.21093 0.78907 a 0.550785,0.550785 0 1 0 1.10157,0 v -0.78907 -0.65429 l 0.44336,0.004 a 0.55005501,0.55005501 0 0 0 0.39648,-0.16211 l 1,-1.00781 a 0.55005501,0.55005501 0 0 0 0.16016,-0.38672 v -1 a 0.55005501,0.55005501 0 0 0 -0.16211,-0.39062 l -1,-0.99414 a 0.55005501,0.55005501 0 0 0 -0.38868,-0.16211 h -0.44921 v -0.90235 h 0.44921 a 0.55005501,0.55005501 0 0 0 0.38868,-0.16211 l 0.83984,-0.84375 h 0.77148 a 0.55005501,0.55005501 0 0 0 0.38868,-0.16015 l 1,-1 a 0.55005501,0.55005501 0 0 0 0.16211,-0.38867 v -1.77344 l 0.44921,-0.44922 0.61133,0.61133 a 0.55005501,0.55005501 0 0 0 0.38867,0.16015 h 1.77149 l 0.83984,0.83985 a 0.55005501,0.55005501 0 0 0 0.77735,0 l 1,-1 a 0.55005501,0.55005501 0 0 0 0.16211,-0.38867 v -0.45508 h 1.44921 a 0.55005501,0.55005501 0 1 0 0,-1.09961 z"
         id="path42222-9-3-2"
         inkscape:connector-curvature="0" />
    </g>
  </g>
</svg>
