<svg
   inkscape:export-ydpi="96"
   inkscape:export-xdpi="96"
   inkscape:export-filename="blender_icons.png"
   style="display:inline;enable-background:new"
   inkscape:output_extension="org.inkscape.output.svg.inkscape"
   sodipodi:docname="blender_icons.svg"
   version="1.0"
   inkscape:version="1.2 (dc2aeda, 2022-05-15)"
   sodipodi:version="0.32"
   id="svg2"
   height="14.007982"
   width="14"
   xmlns:inkscape="http://www.inkscape.org/namespaces/inkscape"
   xmlns:sodipodi="http://sodipodi.sourceforge.net/DTD/sodipodi-0.dtd"
   xmlns="http://www.w3.org/2000/svg"
   xmlns:svg="http://www.w3.org/2000/svg"
   xmlns:rdf="http://www.w3.org/1999/02/22-rdf-syntax-ns#"
   xmlns:cc="http://creativecommons.org/ns#"
   xmlns:dc="http://purl.org/dc/elements/1.1/">
  <metadata
     id="metadata34337">
    <rdf:RDF>
      <cc:Work
         rdf:about="">
        <dc:format>image/svg+xml</dc:format>
        <dc:type
           rdf:resource="http://purl.org/dc/dcmitype/StillImage" />
        <dc:title />
      </cc:Work>
    </rdf:RDF>
  </metadata>
  <sodipodi:namedview
     inkscape:pagecheckerboard="true"
     inkscape:document-rotation="0"
     pagecolor="#808080"
     bordercolor="#666666"
     borderopacity="1"
     objecttolerance="10"
     gridtolerance="10"
     guidetolerance="10"
     inkscape:pageopacity="0"
     inkscape:pageshadow="2"
     inkscape:window-width="1728"
     inkscape:window-height="1051"
     id="namedview34335"
     showgrid="false"
     inkscape:zoom="1.7115805"
     inkscape:cx="217.6351"
     inkscape:cy="369.54148"
     inkscape:window-x="767"
     inkscape:window-y="92"
     inkscape:window-maximized="0"
     inkscape:current-layer="layer4"
     inkscape:showpageshadow="2"
     inkscape:deskcolor="#808080" />
  <defs
     id="defs4" />
  <g
     inkscape:groupmode="layer"
     id="layer8"
     inkscape:label="icons"
     style="display:inline"
     transform="translate(-6,-241.99202)">
    <g
       style="display:inline;fill:#ffffff;enable-background:new"
       id="g23463"
       inkscape:label="L-1">
      <path
         style="color:#000000;font-style:normal;font-variant:normal;font-weight:normal;font-stretch:normal;font-size:medium;line-height:normal;font-family:sans-serif;font-variant-ligatures:normal;font-variant-position:normal;font-variant-caps:normal;font-variant-numeric:normal;font-variant-alternates:normal;font-feature-settings:normal;text-indent:0;text-align:start;text-decoration:none;text-decoration-line:none;text-decoration-style:solid;text-decoration-color:#000000;letter-spacing:normal;word-spacing:normal;text-transform:none;writing-mode:lr-tb;direction:ltr;text-orientation:mixed;dominant-baseline:auto;baseline-shift:baseline;text-anchor:start;white-space:normal;shape-padding:0;clip-rule:nonzero;display:inline;overflow:visible;visibility:visible;opacity:1;isolation:auto;mix-blend-mode:normal;color-interpolation:sRGB;color-interpolation-filters:linearRGB;solid-color:#000000;solid-opacity:1;vector-effect:none;fill:#ffffff;fill-opacity:1;fill-rule:nonzero;stroke:none;stroke-width:1;stroke-linecap:round;stroke-linejoin:round;stroke-miterlimit:4;stroke-dasharray:none;stroke-dashoffset:7.4;stroke-opacity:1;marker:none;color-rendering:auto;image-rendering:auto;shape-rendering:auto;text-rendering:auto;enable-background:accumulate"
         d="M 10.492188,241.99219 A 0.50005,0.50005 0 0 0 10.417969,242 H 6.5 A 0.50005,0.50005 0 0 0 6,242.5 v 5 A 0.50005,0.50005 0 0 0 6.5,248 H 8 v 7.5 a 0.50005,0.50005 0 0 0 0.5,0.5 h 9 A 0.50005,0.50005 0 0 0 18,255.5 V 248 h 1.5 a 0.50005,0.50005 0 0 0 0.5,-0.5 v -5 A 0.50005,0.50005 0 0 0 19.5,242 h -3.919922 a 0.50005,0.50005 0 0 0 -0.404297,0.11328 0.50005,0.50005 0 0 0 -0.01953,0.0156 0.50005,0.50005 0 0 0 -0.01758,0.0176 0.50005,0.50005 0 0 0 -0.002,0.004 0.50005,0.50005 0 0 0 -0.03125,0.0332 0.50005,0.50005 0 0 0 -0.002,0.004 A 0.50005,0.50005 0 0 0 15,242.58203 V 243 c 0,0.71532 -0.380592,1.37478 -1,1.73242 -0.619409,0.35765 -1.380591,0.35765 -2,0 -0.619408,-0.35764 -1,-1.0171 -1,-1.73242 v -0.41992 a 0.50005,0.50005 0 0 0 -0.113281,-0.4043 0.50005,0.50005 0 0 0 -0.002,-0.004 0.50005,0.50005 0 0 0 -0.03125,-0.0332 0.50005,0.50005 0 0 0 -0.0039,-0.002 0.50005,0.50005 0 0 0 -0.0332,-0.0312 0.50005,0.50005 0 0 0 -0.0039,-0.002 0.50005,0.50005 0 0 0 -0.320312,-0.11133 z M 7,243 h 3 c 0,1.07096 0.57257,2.06216 1.5,2.59766 0.927429,0.53549 2.072571,0.53549 3,0 0.92743,-0.5355 1.5,-1.5267 1.5,-2.59766 h 3 v 4 H 17.5 A 0.50005,0.50005 0 0 0 17,247.5 V 255 H 9 v -7.5 A 0.50005,0.50005 0 0 0 8.5,247 H 7 Z"
         id="path22384"
         inkscape:connector-curvature="0" />
    </g>
  </g>
</svg>
