<svg xmlns="http://www.w3.org/2000/svg" width="20" height="20" viewBox="0 0 20 20" xml:space="preserve"><g transform="translate(-483.8437466666667, -406.41926666666666) scale(1.0, 1.0)"><path fill="#ffffff" d="m 374.12695,305.31445 c -1.10721,0 -1.93616,0.24199 -2.97851,0.63086 -1.04236,0.38888 -2.18224,0.95849 -3.30078,1.77735 -2.2371,1.63771 -4.46485,4.54533 -4.46485,8.40625 a 3.0581999,3.0581999 0 0 0 3.0586,3.05859 3.0581999,3.0581999 0 0 0 3.05859,-3.05859 c 0,-1.63187 0.77567,-2.603 1.96094,-3.47071 0.59263,-0.43385 1.26841,-0.77311 1.82422,-0.98047 0.5558,-0.20735 1.10962,-0.24804 0.84179,-0.24804 a 3.0581999,3.0581999 0 0 0 3.05664,-3.0586 3.0581999,3.0581999 0 0 0 -3.05664,-3.05664 z" /></g></svg>