<svg
   inkscape:export-ydpi="96"
   inkscape:export-xdpi="96"
   inkscape:export-filename="blender_icons.png"
   style="display:inline;enable-background:new"
   inkscape:output_extension="org.inkscape.output.svg.inkscape"
   sodipodi:docname="blender_icons.svg"
   version="1.0"
   inkscape:version="1.2 (dc2aeda, 2022-05-15)"
   sodipodi:version="0.32"
   id="svg2"
   height="13.999407"
   width="14.048641"
   xmlns:inkscape="http://www.inkscape.org/namespaces/inkscape"
   xmlns:sodipodi="http://sodipodi.sourceforge.net/DTD/sodipodi-0.dtd"
   xmlns="http://www.w3.org/2000/svg"
   xmlns:svg="http://www.w3.org/2000/svg"
   xmlns:rdf="http://www.w3.org/1999/02/22-rdf-syntax-ns#"
   xmlns:cc="http://creativecommons.org/ns#"
   xmlns:dc="http://purl.org/dc/elements/1.1/">
  <metadata
     id="metadata34337">
    <rdf:RDF>
      <cc:Work
         rdf:about="">
        <dc:format>image/svg+xml</dc:format>
        <dc:type
           rdf:resource="http://purl.org/dc/dcmitype/StillImage" />
        <dc:title />
      </cc:Work>
    </rdf:RDF>
  </metadata>
  <sodipodi:namedview
     inkscape:pagecheckerboard="true"
     inkscape:document-rotation="0"
     pagecolor="#808080"
     bordercolor="#666666"
     borderopacity="1"
     objecttolerance="10"
     gridtolerance="10"
     guidetolerance="10"
     inkscape:pageopacity="0"
     inkscape:pageshadow="2"
     inkscape:window-width="1728"
     inkscape:window-height="1051"
     id="namedview34335"
     showgrid="false"
     inkscape:zoom="1.7115805"
     inkscape:cx="217.6351"
     inkscape:cy="369.54148"
     inkscape:window-x="767"
     inkscape:window-y="92"
     inkscape:window-maximized="0"
     inkscape:current-layer="layer4"
     inkscape:showpageshadow="2"
     inkscape:deskcolor="#808080" />
  <defs
     id="defs4" />
  <g
     inkscape:groupmode="layer"
     id="layer8"
     inkscape:label="icons"
     style="display:inline"
     transform="translate(-26.986251,-263.00059)">
    <g
       style="display:inline;fill:#ffffff;enable-background:new"
       id="g21947"
       transform="matrix(-1,0,0,1,67.9866,-21)"
       inkscape:label="M-2">
      <path
         id="circle21927"
         style="color:#000000;font-style:normal;font-variant:normal;font-weight:normal;font-stretch:normal;font-size:medium;line-height:normal;font-family:sans-serif;font-variant-ligatures:normal;font-variant-position:normal;font-variant-caps:normal;font-variant-numeric:normal;font-variant-alternates:normal;font-feature-settings:normal;text-indent:0;text-align:start;text-decoration:none;text-decoration-line:none;text-decoration-style:solid;text-decoration-color:#000000;letter-spacing:normal;word-spacing:normal;text-transform:none;writing-mode:lr-tb;direction:ltr;text-orientation:mixed;dominant-baseline:auto;baseline-shift:baseline;text-anchor:start;white-space:normal;shape-padding:0;clip-rule:nonzero;display:inline;overflow:visible;visibility:visible;opacity:1;isolation:auto;mix-blend-mode:normal;color-interpolation:sRGB;color-interpolation-filters:linearRGB;solid-color:#000000;solid-opacity:1;vector-effect:none;fill:#ffffff;fill-opacity:1;fill-rule:nonzero;stroke:none;stroke-width:1;stroke-linecap:round;stroke-linejoin:round;stroke-miterlimit:4;stroke-dasharray:none;stroke-dashoffset:0;stroke-opacity:1;marker:none;paint-order:fill markers stroke;color-rendering:auto;image-rendering:auto;shape-rendering:auto;text-rendering:auto;enable-background:accumulate"
         d="m 27.460938,284.01172 a 0.50005,0.50005 0 1 0 0.04297,0.99805 c 3.348416,-0.1388 6.600566,1.12874 8.972656,3.49609 2.372091,2.36735 3.645762,5.61811 3.513672,8.9668 a 0.50038206,0.50038206 0 1 0 1,0.0391 c 0.143077,-3.62723 -1.237239,-7.14863 -3.80664,-9.71289 -2.569402,-2.56427 -6.09572,-3.93745 -9.722656,-3.78711 z m -0.0332,4.00586 a 0.50005,0.50005 0 1 0 0.0625,0.99804 c 2.281784,-0.14542 4.516597,0.69332 6.140625,2.30274 1.62403,1.60942 2.482218,3.83613 2.357422,6.11914 a 0.50005,0.50005 0 1 0 0.998047,0.0547 c 0.140364,-2.5678 -0.823774,-5.07459 -2.65039,-6.88477 -1.826617,-1.81018 -4.341781,-2.75341 -6.908204,-2.58984 z m 0.03711,4.01172 a 0.50005,0.50005 0 1 0 0.107422,0.99414 c 1.199607,-0.12917 2.392346,0.29002 3.248046,1.14062 0.855701,0.8506 1.282148,2.03988 1.160157,3.24024 a 0.50005,0.50005 0 1 0 0.99414,0.10156 c 0.152408,-1.49965 -0.380162,-2.99006 -1.449218,-4.05274 -1.069056,-1.06268 -2.561836,-1.5852 -4.060547,-1.42382 z M 28,296 c -0.546362,0 -1,0.45364 -1,1 0,0.54636 0.453638,1 1,1 0.546362,0 1,-0.45364 1,-1 0,-0.54636 -0.453638,-1 -1,-1 z"
         inkscape:connector-curvature="0" />
    </g>
  </g>
</svg>
