<svg
   inkscape:export-ydpi="96"
   inkscape:export-xdpi="96"
   inkscape:export-filename="blender_icons.png"
   style="display:inline;enable-background:new"
   inkscape:output_extension="org.inkscape.output.svg.inkscape"
   sodipodi:docname="blender_icons.svg"
   version="1.0"
   inkscape:version="1.2 (dc2aeda, 2022-05-15)"
   sodipodi:version="0.32"
   id="svg2"
   height="14.00009"
   width="13.955687"
   xmlns:inkscape="http://www.inkscape.org/namespaces/inkscape"
   xmlns:sodipodi="http://sodipodi.sourceforge.net/DTD/sodipodi-0.dtd"
   xmlns="http://www.w3.org/2000/svg"
   xmlns:svg="http://www.w3.org/2000/svg"
   xmlns:rdf="http://www.w3.org/1999/02/22-rdf-syntax-ns#"
   xmlns:cc="http://creativecommons.org/ns#"
   xmlns:dc="http://purl.org/dc/elements/1.1/">
  <metadata
     id="metadata34337">
    <rdf:RDF>
      <cc:Work
         rdf:about="">
        <dc:format>image/svg+xml</dc:format>
        <dc:type
           rdf:resource="http://purl.org/dc/dcmitype/StillImage" />
        <dc:title />
      </cc:Work>
    </rdf:RDF>
  </metadata>
  <sodipodi:namedview
     inkscape:pagecheckerboard="true"
     inkscape:document-rotation="0"
     pagecolor="#808080"
     bordercolor="#666666"
     borderopacity="1"
     objecttolerance="10"
     gridtolerance="10"
     guidetolerance="10"
     inkscape:pageopacity="0"
     inkscape:pageshadow="2"
     inkscape:window-width="1728"
     inkscape:window-height="1051"
     id="namedview34335"
     showgrid="false"
     inkscape:zoom="1.7115805"
     inkscape:cx="217.6351"
     inkscape:cy="369.54148"
     inkscape:window-x="767"
     inkscape:window-y="92"
     inkscape:window-maximized="0"
     inkscape:current-layer="layer4"
     inkscape:showpageshadow="2"
     inkscape:deskcolor="#808080" />
  <defs
     id="defs4" />
  <g
     inkscape:groupmode="layer"
     id="layer8"
     inkscape:label="icons"
     style="display:inline"
     transform="translate(-531.03068,-494)">
    <g
       id="g31077"
       inkscape:label="X-26"
       style="display:inline;enable-background:new">
      <path
         style="color:#000000;font-style:normal;font-variant:normal;font-weight:normal;font-stretch:normal;font-size:medium;line-height:normal;font-family:sans-serif;font-variant-ligatures:normal;font-variant-position:normal;font-variant-caps:normal;font-variant-numeric:normal;font-variant-alternates:normal;font-feature-settings:normal;text-indent:0;text-align:start;text-decoration:none;text-decoration-line:none;text-decoration-style:solid;text-decoration-color:#000000;letter-spacing:normal;word-spacing:normal;text-transform:none;writing-mode:lr-tb;direction:ltr;text-orientation:mixed;dominant-baseline:auto;baseline-shift:baseline;text-anchor:start;white-space:normal;shape-padding:0;clip-rule:nonzero;display:inline;overflow:visible;visibility:visible;opacity:1;isolation:auto;mix-blend-mode:normal;color-interpolation:sRGB;color-interpolation-filters:linearRGB;solid-color:#000000;solid-opacity:1;vector-effect:none;fill:#ffffff;fill-opacity:1;fill-rule:nonzero;stroke:none;stroke-width:1;stroke-linecap:round;stroke-linejoin:round;stroke-miterlimit:4;stroke-dasharray:none;stroke-dashoffset:0;stroke-opacity:1;marker:none;paint-order:fill markers stroke;color-rendering:auto;image-rendering:auto;shape-rendering:auto;text-rendering:auto;enable-background:accumulate"
         d="m 535.5,494 c -0.27613,3e-5 -0.49997,0.22387 -0.5,0.5 v 1 c 2e-5,0.1326 0.0527,0.25976 0.14648,0.35352 L 536,496.70703 v 2.61524 l -4.38672,5.36132 -0.004,0.004 c -0.58889,0.7361 -0.70787,1.57018 -0.44922,2.2168 0.25864,0.64662 0.88151,1.0957 1.58984,1.0957 h 10.5 c 0.70833,0 1.33692,-0.44332 1.60352,-1.0918 0.26614,-0.64736 0.14367,-1.48967 -0.4668,-2.22461 L 540,499.32227 v -2.61524 l 0.85352,-0.85351 c 0.0938,-0.0938 0.14646,-0.22092 0.14648,-0.35352 v -1 c -3e-5,-0.27613 -0.22387,-0.49997 -0.5,-0.5 z m 0.5,1 h 4 v 0.29297 l -0.85352,0.85351 c -0.0938,0.0938 -0.14646,0.22092 -0.14648,0.35352 v 3 c 1.3e-4,0.11538 0.0402,0.22717 0.11328,0.31641 l 4.5,5.5 c 6.6e-4,10e-4 9.5e-4,0.003 0.002,0.004 0.42848,0.51418 0.43133,0.91996 0.3125,1.20899 C 543.80886,506.81822 543.54167,507 543.25,507 h -10.5 c -0.29167,0 -0.5438,-0.17592 -0.66016,-0.4668 -0.11635,-0.29088 -0.11033,-0.7068 0.30078,-1.2207 l 4.4961,-5.49609 c 0.0731,-0.0892 0.11315,-0.20103 0.11328,-0.31641 v -3 c -2e-5,-0.1326 -0.0527,-0.25976 -0.14648,-0.35352 L 536,495.29297 Z m 0,8 c -0.14428,-3.9e-4 -0.2817,0.0616 -0.37695,0.16992 l -1.75,2 c -0.28426,0.32357 -0.0537,0.83118 0.37695,0.83008 h 7.5 c 0.43069,10e-4 0.66121,-0.50651 0.37695,-0.83008 l -1.75,-2 C 540.2817,503.06155 540.14428,502.99961 540,503 Z"
         id="path13700"
         inkscape:connector-curvature="0" />
    </g>
  </g>
</svg>
