<svg
   inkscape:export-ydpi="96"
   inkscape:export-xdpi="96"
   inkscape:export-filename="blender_icons.png"
   style="display:inline;enable-background:new"
   inkscape:output_extension="org.inkscape.output.svg.inkscape"
   sodipodi:docname="blender_icons.svg"
   version="1.0"
   inkscape:version="1.2 (dc2aeda, 2022-05-15)"
   sodipodi:version="0.32"
   id="svg2"
   height="14"
   width="14"
   xmlns:inkscape="http://www.inkscape.org/namespaces/inkscape"
   xmlns:sodipodi="http://sodipodi.sourceforge.net/DTD/sodipodi-0.dtd"
   xmlns="http://www.w3.org/2000/svg"
   xmlns:svg="http://www.w3.org/2000/svg"
   xmlns:rdf="http://www.w3.org/1999/02/22-rdf-syntax-ns#"
   xmlns:cc="http://creativecommons.org/ns#"
   xmlns:dc="http://purl.org/dc/elements/1.1/">
  <metadata
     id="metadata34337">
    <rdf:RDF>
      <cc:Work
         rdf:about="">
        <dc:format>image/svg+xml</dc:format>
        <dc:type
           rdf:resource="http://purl.org/dc/dcmitype/StillImage" />
        <dc:title />
      </cc:Work>
    </rdf:RDF>
  </metadata>
  <sodipodi:namedview
     inkscape:pagecheckerboard="true"
     inkscape:document-rotation="0"
     pagecolor="#808080"
     bordercolor="#666666"
     borderopacity="1"
     objecttolerance="10"
     gridtolerance="10"
     guidetolerance="10"
     inkscape:pageopacity="0"
     inkscape:pageshadow="2"
     inkscape:window-width="1728"
     inkscape:window-height="1051"
     id="namedview34335"
     showgrid="false"
     inkscape:zoom="1.7115805"
     inkscape:cx="217.6351"
     inkscape:cy="369.54148"
     inkscape:window-x="767"
     inkscape:window-y="92"
     inkscape:window-maximized="0"
     inkscape:current-layer="layer4"
     inkscape:showpageshadow="2"
     inkscape:deskcolor="#808080" />
  <defs
     id="defs4" />
  <g
     inkscape:groupmode="layer"
     id="layer8"
     inkscape:label="icons"
     style="display:inline"
     transform="translate(-279.00391,-410)">
    <g
       style="display:inline;fill:#ffffff;enable-background:new"
       transform="rotate(180,307.0055,417)"
       id="g13597"
       inkscape:export-filename="blender_icons.png"
       inkscape:export-xdpi="96"
       inkscape:export-ydpi="96"
       inkscape:label="T-14">
      <path
         style="color:#000000;font-style:normal;font-variant:normal;font-weight:normal;font-stretch:normal;font-size:medium;line-height:normal;font-family:sans-serif;font-variant-ligatures:normal;font-variant-position:normal;font-variant-caps:normal;font-variant-numeric:normal;font-variant-alternates:normal;font-feature-settings:normal;text-indent:0;text-align:start;text-decoration:none;text-decoration-line:none;text-decoration-style:solid;text-decoration-color:#000000;letter-spacing:normal;word-spacing:normal;text-transform:none;writing-mode:lr-tb;direction:ltr;text-orientation:mixed;dominant-baseline:auto;baseline-shift:baseline;text-anchor:start;white-space:normal;shape-padding:0;clip-rule:nonzero;display:inline;overflow:visible;visibility:visible;opacity:1;isolation:auto;mix-blend-mode:normal;color-interpolation:sRGB;color-interpolation-filters:linearRGB;solid-color:#000000;solid-opacity:1;vector-effect:none;fill:#ffffff;fill-opacity:1;fill-rule:evenodd;stroke:none;stroke-width:1;stroke-linecap:round;stroke-linejoin:round;stroke-miterlimit:4;stroke-dasharray:none;stroke-dashoffset:0;stroke-opacity:1;marker:none;color-rendering:auto;image-rendering:auto;shape-rendering:auto;text-rendering:auto;enable-background:accumulate"
         d="m 289.50391,410 a 0.50005,0.50005 0 0 0 -0.5,0.5 v 1.5 h -0.99414 c -1.17529,0 -2.25213,0.41841 -2.88477,1.18164 -0.28029,0.32895 -0.0395,0.83456 0.39258,0.82422 0.14712,-0.004 0.28501,-0.0726 0.37695,-0.1875 C 286.27001,413.36537 287.08306,413 288.00977,413 h 0.99414 v 0.5 a 0.50005,0.50005 0 0 0 0.5,0.5 h 3 a 0.50005,0.50005 0 0 0 0.5,-0.5 v -3 a 0.50005,0.50005 0 0 0 -0.5,-0.5 z m 0.5,1 h 2 v 2 h -2 z m -4.58594,3.95898 c -1.10666,0.0478 -2.07229,0.36866 -2.82031,0.91211 -0.99737,0.72461 -1.58789,1.85424 -1.58789,3.12891 v 1 h -1.50586 a 0.50005,0.50005 0 0 0 -0.5,0.5 v 3 a 0.50005,0.50005 0 0 0 0.5,0.5 h 3 a 0.50005,0.50005 0 0 0 0.5,-0.5 v -3 a 0.50005,0.50005 0 0 0 -0.5,-0.5 h -0.49414 v -1 c 0,-0.97533 0.41802,-1.76979 1.17578,-2.32031 0.75777,-0.55053 1.87662,-0.84701 3.26562,-0.6836 1.98998,0.23412 3.41358,1.22814 4.10352,2.33203 0.68994,1.10391 0.68215,2.23778 -0.14844,3.06836 -0.83795,0.83796 -1.98844,0.89361 -3.08398,0.26368 -1.09554,-0.62994 -2.08242,-1.9799 -2.31641,-3.96875 -0.0504,-0.69579 -1.10528,-0.57121 -0.99219,0.11718 0.26601,2.26115 1.40414,3.91119 2.8086,4.71875 0.70223,0.40379 1.48456,0.58895 2.23632,0.52735 0.75176,-0.0616 1.47366,-0.37015 2.05469,-0.95117 1.16941,-1.16942 1.16162,-2.91055 0.28906,-4.30664 -0.87256,-1.3961 -2.57396,-2.52709 -4.83398,-2.79297 -0.39761,-0.0468 -0.78151,-0.0608 -1.15039,-0.0449 z M 280.00391,421 h 2 v 2 h -2 z"
         transform="rotate(180,307.0055,417)"
         id="path13595"
         inkscape:connector-curvature="0" />
    </g>
  </g>
</svg>
