<svg
   inkscape:export-ydpi="96"
   inkscape:export-xdpi="96"
   inkscape:export-filename="blender_icons.png"
   style="display:inline;enable-background:new"
   inkscape:output_extension="org.inkscape.output.svg.inkscape"
   sodipodi:docname="blender_icons.svg"
   version="1.0"
   inkscape:version="1.2 (dc2aeda, 2022-05-15)"
   sodipodi:version="0.32"
   id="svg2"
   height="14.013871"
   width="14.013789"
   xmlns:inkscape="http://www.inkscape.org/namespaces/inkscape"
   xmlns:sodipodi="http://sodipodi.sourceforge.net/DTD/sodipodi-0.dtd"
   xmlns="http://www.w3.org/2000/svg"
   xmlns:svg="http://www.w3.org/2000/svg"
   xmlns:rdf="http://www.w3.org/1999/02/22-rdf-syntax-ns#"
   xmlns:cc="http://creativecommons.org/ns#"
   xmlns:dc="http://purl.org/dc/elements/1.1/">
  <metadata
     id="metadata34337">
    <rdf:RDF>
      <cc:Work
         rdf:about="">
        <dc:format>image/svg+xml</dc:format>
        <dc:type
           rdf:resource="http://purl.org/dc/dcmitype/StillImage" />
        <dc:title />
      </cc:Work>
    </rdf:RDF>
  </metadata>
  <sodipodi:namedview
     inkscape:pagecheckerboard="true"
     inkscape:document-rotation="0"
     pagecolor="#808080"
     bordercolor="#666666"
     borderopacity="1"
     objecttolerance="10"
     gridtolerance="10"
     guidetolerance="10"
     inkscape:pageopacity="0"
     inkscape:pageshadow="2"
     inkscape:window-width="1728"
     inkscape:window-height="1051"
     id="namedview34335"
     showgrid="false"
     inkscape:zoom="1.7115805"
     inkscape:cx="217.6351"
     inkscape:cy="369.54148"
     inkscape:window-x="767"
     inkscape:window-y="92"
     inkscape:window-maximized="0"
     inkscape:current-layer="layer4"
     inkscape:showpageshadow="2"
     inkscape:deskcolor="#808080" />
  <defs
     id="defs4" />
  <g
     inkscape:groupmode="layer"
     id="layer8"
     inkscape:label="icons"
     style="display:inline"
     transform="translate(-236.99995,-409.98613)">
    <g
       id="g84226"
       style="display:inline;enable-background:new"
       inkscape:label="T-12">
      <path
         style="display:inline;opacity:1;vector-effect:none;fill:#ffffff;fill-opacity:1;stroke:none;stroke-width:1;stroke-linecap:round;stroke-linejoin:round;stroke-miterlimit:3.7;stroke-dasharray:none;stroke-dashoffset:0;stroke-opacity:1;marker:none;enable-background:new"
         d="m 240.51382,409.98613 a 0.50005,0.50005 0 0 0 -0.3594,0.1524 l -3,3 a 0.50005,0.50005 0 1 0 0.707,0.707 l 3,-3 a 0.50005,0.50005 0 0 0 -0.3476,-0.8594 z m 5,0 a 0.50005,0.50005 0 0 0 -0.3594,0.1524 l -8,8 a 0.50005,0.50005 0 1 0 0.707,0.707 l 8,-8 a 0.50005,0.50005 0 0 0 -0.3476,-0.8594 z m 5,0 a 0.50005,0.50005 0 0 0 -0.3594,0.1524 l -4.416,4.416 c 0.2729,0.1952 0.5118,0.4341 0.707,0.707 l 4.416,-4.416 a 0.50005,0.50005 0 0 0 -0.3476,-0.8594 z m 0,5 a 0.50005,0.50005 0 0 0 -0.3594,0.1524 l -8,8 a 0.50005,0.50005 0 1 0 0.707,0.707 l 8,-8 a 0.50005,0.50005 0 0 0 -0.3476,-0.8594 z m -6.5059,1.0059 a 1.0000001,1 0 0 0 -1,1 1.0000001,1 0 0 0 1,1 1.0000001,1 0 0 0 1,-1 1.0000001,1 0 0 0 -1,-1 z m -2.4375,2.7305 -4.416,4.416 a 0.50005,0.50005 0 1 0 0.707,0.707 l 4.416,-4.416 c -0.2729,-0.1952 -0.5118,-0.4341 -0.707,-0.707 z m 8.9434,1.2636 a 0.50005,0.50005 0 0 0 -0.3594,0.1524 l -3,3 a 0.50005,0.50005 0 1 0 0.707,0.707 l 3,-3 a 0.50005,0.50005 0 0 0 -0.3476,-0.8594 z"
         id="path21556-6"
         inkscape:connector-curvature="0"
         inkscape:export-filename="blender_icons.png"
         inkscape:export-xdpi="115"
         inkscape:export-ydpi="115" />
    </g>
  </g>
</svg>
