<svg
   inkscape:export-ydpi="96"
   inkscape:export-xdpi="96"
   inkscape:export-filename="blender_icons.png"
   style="display:inline;enable-background:new"
   inkscape:output_extension="org.inkscape.output.svg.inkscape"
   sodipodi:docname="blender_icons.svg"
   version="1.0"
   inkscape:version="1.2 (dc2aeda, 2022-05-15)"
   sodipodi:version="0.32"
   id="svg2"
   height="14"
   width="13.999596"
   xmlns:inkscape="http://www.inkscape.org/namespaces/inkscape"
   xmlns:sodipodi="http://sodipodi.sourceforge.net/DTD/sodipodi-0.dtd"
   xmlns="http://www.w3.org/2000/svg"
   xmlns:svg="http://www.w3.org/2000/svg"
   xmlns:rdf="http://www.w3.org/1999/02/22-rdf-syntax-ns#"
   xmlns:cc="http://creativecommons.org/ns#"
   xmlns:dc="http://purl.org/dc/elements/1.1/">
  <metadata
     id="metadata34337">
    <rdf:RDF>
      <cc:Work
         rdf:about="">
        <dc:format>image/svg+xml</dc:format>
        <dc:type
           rdf:resource="http://purl.org/dc/dcmitype/StillImage" />
        <dc:title />
      </cc:Work>
    </rdf:RDF>
  </metadata>
  <sodipodi:namedview
     inkscape:pagecheckerboard="true"
     inkscape:document-rotation="0"
     pagecolor="#808080"
     bordercolor="#666666"
     borderopacity="1"
     objecttolerance="10"
     gridtolerance="10"
     guidetolerance="10"
     inkscape:pageopacity="0"
     inkscape:pageshadow="2"
     inkscape:window-width="1728"
     inkscape:window-height="1051"
     id="namedview34335"
     showgrid="false"
     inkscape:zoom="1.7115805"
     inkscape:cx="217.6351"
     inkscape:cy="369.54148"
     inkscape:window-x="767"
     inkscape:window-y="92"
     inkscape:window-maximized="0"
     inkscape:current-layer="layer4"
     inkscape:showpageshadow="2"
     inkscape:deskcolor="#808080" />
  <defs
     id="defs4" />
  <g
     inkscape:groupmode="layer"
     id="layer8"
     inkscape:label="icons"
     style="display:inline"
     transform="translate(-216,-410)">
    <g
       transform="translate(63,189)"
       id="g13463"
       style="display:inline;fill:#ffffff;enable-background:new"
       inkscape:export-filename="blender_icons.png"
       inkscape:export-xdpi="96"
       inkscape:export-ydpi="96"
       inkscape:label="T-11">
      <path
         style="color:#000000;font-style:normal;font-variant:normal;font-weight:normal;font-stretch:normal;font-size:medium;line-height:normal;font-family:sans-serif;font-variant-ligatures:normal;font-variant-position:normal;font-variant-caps:normal;font-variant-numeric:normal;font-variant-alternates:normal;font-feature-settings:normal;text-indent:0;text-align:start;text-decoration:none;text-decoration-line:none;text-decoration-style:solid;text-decoration-color:#000000;letter-spacing:normal;word-spacing:normal;text-transform:none;writing-mode:lr-tb;direction:ltr;text-orientation:mixed;dominant-baseline:auto;baseline-shift:baseline;text-anchor:start;white-space:normal;shape-padding:0;clip-rule:nonzero;display:inline;overflow:visible;visibility:visible;opacity:1;isolation:auto;mix-blend-mode:normal;color-interpolation:sRGB;color-interpolation-filters:linearRGB;solid-color:#000000;solid-opacity:1;vector-effect:none;fill:#ffffff;fill-opacity:1;fill-rule:nonzero;stroke:none;stroke-width:1;stroke-linecap:round;stroke-linejoin:round;stroke-miterlimit:4;stroke-dasharray:none;stroke-dashoffset:0;stroke-opacity:1;color-rendering:auto;image-rendering:auto;shape-rendering:auto;text-rendering:auto;enable-background:new"
         d="m 221.5,410 a 0.50005,0.50005 0 0 0 -0.35352,0.14648 L 218.29297,413 H 216.5 a 0.50005,0.50005 0 0 0 -0.5,0.5 v 7 a 0.50005,0.50005 0 0 0 0.5,0.5 h 1.79297 l 2.85351,2.85352 A 0.50005,0.50005 0 0 0 221.5,424 h 1 a 0.50005,0.50005 0 0 0 0.5,-0.5 V 410.78125 410.5 a 0.50005,0.50005 0 0 0 -0.5,-0.5 z m 0.20703,1 H 222 v 12 h -0.29297 l -2.85351,-2.85352 A 0.50005,0.50005 0 0 0 218.5,420 H 217 v -6 h 1.5 a 0.50005,0.50005 0 0 0 0.35352,-0.14648 z m 6.75977,1.01562 a 0.50005,0.50005 0 0 0 -0.42188,0.72071 c 1.27607,2.70648 1.27328,5.84072 -0.008,8.54492 a 0.50017783,0.50017783 0 1 0 0.9043,0.42773 c 1.40867,-2.97397 1.41099,-6.42391 0.008,-9.40039 a 0.50005,0.50005 0 0 0 -0.48242,-0.29297 z m -2.86133,0.9375 a 0.50005,0.50005 0 0 0 -0.43359,0.74219 c 1.10286,2.06013 1.1045,4.5334 0.006,6.59571 a 0.50023236,0.50023236 0 1 0 0.88282,0.4707 c 1.25518,-2.35583 1.25221,-5.18378 -0.008,-7.53711 a 0.50005,0.50005 0 0 0 -0.44726,-0.27149 z"
         transform="translate(-63,-189)"
         id="path13456"
         inkscape:connector-curvature="0" />
    </g>
  </g>
</svg>
