<svg
   inkscape:export-ydpi="96"
   inkscape:export-xdpi="96"
   inkscape:export-filename="blender_icons.png"
   style="display:inline;enable-background:new"
   inkscape:output_extension="org.inkscape.output.svg.inkscape"
   sodipodi:docname="blender_icons.svg"
   version="1.0"
   inkscape:version="1.2 (dc2aeda, 2022-05-15)"
   sodipodi:version="0.32"
   id="svg2"
   height="13.999914"
   width="13.998873"
   xmlns:inkscape="http://www.inkscape.org/namespaces/inkscape"
   xmlns:sodipodi="http://sodipodi.sourceforge.net/DTD/sodipodi-0.dtd"
   xmlns="http://www.w3.org/2000/svg"
   xmlns:svg="http://www.w3.org/2000/svg"
   xmlns:rdf="http://www.w3.org/1999/02/22-rdf-syntax-ns#"
   xmlns:cc="http://creativecommons.org/ns#"
   xmlns:dc="http://purl.org/dc/elements/1.1/">
  <metadata
     id="metadata34337">
    <rdf:RDF>
      <cc:Work
         rdf:about="">
        <dc:format>image/svg+xml</dc:format>
        <dc:type
           rdf:resource="http://purl.org/dc/dcmitype/StillImage" />
        <dc:title />
      </cc:Work>
    </rdf:RDF>
  </metadata>
  <sodipodi:namedview
     inkscape:pagecheckerboard="true"
     inkscape:document-rotation="0"
     pagecolor="#808080"
     bordercolor="#666666"
     borderopacity="1"
     objecttolerance="10"
     gridtolerance="10"
     guidetolerance="10"
     inkscape:pageopacity="0"
     inkscape:pageshadow="2"
     inkscape:window-width="1728"
     inkscape:window-height="1051"
     id="namedview34335"
     showgrid="false"
     inkscape:zoom="1.7115805"
     inkscape:cx="217.6351"
     inkscape:cy="369.54148"
     inkscape:window-x="767"
     inkscape:window-y="92"
     inkscape:window-maximized="0"
     inkscape:current-layer="layer4"
     inkscape:showpageshadow="2"
     inkscape:deskcolor="#808080" />
  <defs
     id="defs4" />
  <g
     inkscape:groupmode="layer"
     id="layer8"
     inkscape:label="icons"
     style="display:inline"
     transform="translate(-173.44873,-94.582541)">
    <g
       id="g3389"
       inkscape:label="E-9"
       style="display:inline;enable-background:new">
      <path
         style="color:#000000;font-style:normal;font-variant:normal;font-weight:normal;font-stretch:normal;font-size:medium;line-height:normal;font-family:sans-serif;font-variant-ligatures:normal;font-variant-position:normal;font-variant-caps:normal;font-variant-numeric:normal;font-variant-alternates:normal;font-feature-settings:normal;text-indent:0;text-align:start;text-decoration:none;text-decoration-line:none;text-decoration-style:solid;text-decoration-color:#000000;letter-spacing:normal;word-spacing:normal;text-transform:none;writing-mode:lr-tb;direction:ltr;text-orientation:mixed;dominant-baseline:auto;baseline-shift:baseline;text-anchor:start;white-space:normal;shape-padding:0;clip-rule:nonzero;display:inline;overflow:visible;visibility:visible;opacity:1;isolation:auto;mix-blend-mode:normal;color-interpolation:sRGB;color-interpolation-filters:linearRGB;solid-color:#000000;solid-opacity:1;vector-effect:none;fill:#ffffff;fill-opacity:1;fill-rule:nonzero;stroke:none;stroke-width:1;stroke-linecap:round;stroke-linejoin:round;stroke-miterlimit:4;stroke-dasharray:none;stroke-dashoffset:0;stroke-opacity:1;marker:none;paint-order:fill markers stroke;color-rendering:auto;image-rendering:auto;shape-rendering:auto;text-rendering:auto;enable-background:accumulate"
         d="m 181.13795,94.59407 c -0.39468,0.0302 -0.78775,0.12022 -1.16797,0.27148 -1.52086,0.60507 -2.52148,2.07999 -2.52148,3.716796 a 0.50005,0.50005 0 0 0 0.0156,0.13281 c -0.36519,0.0927 -0.72282,0.22834 -1.0586,0.42774 -1.44139,0.85595 -2.17088,2.516884 -1.8789,4.144534 -0.68715,0.57705 -1.10816,1.44799 -1.07617,2.39648 0.0502,1.48769 1.19214,2.71921 2.67187,2.88086 1.39818,0.15274 2.69975,-0.69789 3.15234,-2.00781 0.89605,0.0388 1.7697,-0.22225 2.49805,-0.74609 1.07373,0.85551 2.55787,1.01607 3.78906,0.37695 1.30171,-0.67573 2.04374,-2.09602 1.85742,-3.55078 -0.16328,-1.27499 -1.01006,-2.34261 -2.17968,-2.806644 0.45466,-1.38242 0.13144,-2.921096 -0.88477,-3.996096 -0.56221,-0.59473 -1.27727,-0.98709 -2.04297,-1.15625 -0.38285,-0.0846 -0.77914,-0.11418 -1.17382,-0.084 z m 0.52149,0.99609 c 0.73445,0.0517 1.44053,0.37287 1.96874,0.93164 0.84514,0.89404 1.0593,2.208446 0.54101,3.324216 a 0.50005,0.50005 0 0 0 -0.0527,0.216804 0.50005,0.50005 0 0 0 0.38672,0.58203 c 1.02426,0.23341 1.79232,1.07713 1.92578,2.11914 0.13345,1.04201 -0.39575,2.0531 -1.32813,2.53711 -0.93238,0.48401 -2.06443,0.33572 -2.83983,-0.37305 a 0.50005,0.50005 0 0 0 -0.20313,-0.11914 0.50005,0.50005 0 0 0 -0.28125,-0.0977 0.50005,0.50005 0 0 0 -0.35156,0.1289 c -0.65771,0.57559 -1.53314,0.83597 -2.39844,0.71289 a 0.50008765,0.50008765 0 0 0 -0.54297,0.33008 0.50005,0.50005 0 0 0 -0.0977,0.19727 c -0.24832,0.96717 -1.16166,1.59867 -2.15429,1.49023 -0.99264,-0.10844 -1.7476,-0.92195 -1.78125,-1.91992 -0.0231,-0.68418 0.30371,-1.29829 0.82422,-1.67774 a 0.50005,0.50005 0 0 0 0.16601,-0.11718 c 0.19833,-0.11547 0.41799,-0.19976 0.65625,-0.24219 a 0.50005,0.50005 0 0 0 -0.0898,-0.99414 0.50005,0.50005 0 0 0 -0.084,0.01 c -0.16025,0.0285 -0.31331,0.0746 -0.46289,0.12695 -0.0646,-1.10299 0.47775,-2.17237 1.45703,-2.75391 1.15771,-0.687484 2.62445,-0.520214 3.59961,0.4082 a 0.50009806,0.50009806 0 0 0 0.68945,-0.724604 c -0.64816,-0.6171 -1.46287,-0.98259 -2.30859,-1.07813 -0.14875,-0.017 -0.29936,-0.0157 -0.44925,-0.0158 a 0.50005,0.50005 0 0 0 0,-0.01 c 0,-1.230266 0.7475,-2.332316 1.89062,-2.787106 0.42867,-0.17055 0.87964,-0.23611 1.32032,-0.20508 z"
         id="path21574-1-2-7"
         inkscape:connector-curvature="0" />
    </g>
  </g>
</svg>
