<svg
   inkscape:export-ydpi="96"
   inkscape:export-xdpi="96"
   inkscape:export-filename="blender_icons.png"
   style="display:inline;enable-background:new"
   inkscape:output_extension="org.inkscape.output.svg.inkscape"
   sodipodi:docname="blender_icons.svg"
   version="1.0"
   inkscape:version="1.2 (dc2aeda, 2022-05-15)"
   sodipodi:version="0.32"
   id="svg2"
   height="15"
   width="11.9984"
   xmlns:inkscape="http://www.inkscape.org/namespaces/inkscape"
   xmlns:sodipodi="http://sodipodi.sourceforge.net/DTD/sodipodi-0.dtd"
   xmlns="http://www.w3.org/2000/svg"
   xmlns:svg="http://www.w3.org/2000/svg"
   xmlns:rdf="http://www.w3.org/1999/02/22-rdf-syntax-ns#"
   xmlns:cc="http://creativecommons.org/ns#"
   xmlns:dc="http://purl.org/dc/elements/1.1/">
  <metadata
     id="metadata34337">
    <rdf:RDF>
      <cc:Work
         rdf:about="">
        <dc:format>image/svg+xml</dc:format>
        <dc:type
           rdf:resource="http://purl.org/dc/dcmitype/StillImage" />
        <dc:title />
      </cc:Work>
    </rdf:RDF>
  </metadata>
  <sodipodi:namedview
     inkscape:pagecheckerboard="true"
     inkscape:document-rotation="0"
     pagecolor="#808080"
     bordercolor="#666666"
     borderopacity="1"
     objecttolerance="10"
     gridtolerance="10"
     guidetolerance="10"
     inkscape:pageopacity="0"
     inkscape:pageshadow="2"
     inkscape:window-width="1728"
     inkscape:window-height="1051"
     id="namedview34335"
     showgrid="false"
     inkscape:zoom="1.7115805"
     inkscape:cx="217.6351"
     inkscape:cy="369.54148"
     inkscape:window-x="767"
     inkscape:window-y="92"
     inkscape:window-maximized="0"
     inkscape:current-layer="layer4"
     inkscape:showpageshadow="2"
     inkscape:deskcolor="#808080" />
  <defs
     id="defs4" />
  <g
     inkscape:groupmode="layer"
     id="layer8"
     inkscape:label="icons"
     style="display:inline"
     transform="translate(-175,-494)">
    <g
       transform="translate(-847,-1062)"
       id="g24813"
       style="display:inline;fill:#ffffff;enable-background:new"
       inkscape:label="X-9">
      <path
         inkscape:connector-curvature="0"
         id="path24809"
         d="m 1028,1556 c -3.2833,0 -6,2.4414 -6,5.5 0,1.7056 0.9046,3.146 2.1523,4.3594 l 0.9942,0.9941 a 0.50004997,0.50004997 0 0 0 0.3027,0.1485 0.50004997,0.50004997 0 0 0 0.051,0.998 h 5 a 0.50004997,0.50004997 0 0 0 0.045,-0.998 0.50004997,0.50004997 0 0 0 0.3086,-0.1485 l 0.9981,-0.998 v 0 c 1.2122,-1.1985 2.1465,-2.6518 2.1465,-4.3535 0,-3.0586 -2.7167,-5.5 -6,-5.5 z m 0,1 c 2.7919,0 5,2.0358 5,4.5 0,1.3342 -0.7428,2.5488 -1.8516,3.6445 l -1,1 a 0.50004997,0.50004997 0 0 0 0.2793,0.8535 h -4.8594 a 0.50004997,0.50004997 0 0 0 0.2871,-0.8535 l -1,-1 a 0.50004997,0.50004997 0 0 0 -0.01,-0.01 c -1.1397,-1.1082 -1.8477,-2.2864 -1.8477,-3.6406 0,-2.4642 2.2081,-4.5 5,-4.5 z m -2.5,12 a 0.50004997,0.50004997 0 1 0 0,1 h 1.5 v 0.5 a 0.50004997,0.50004997 0 0 0 0.5,0.5 h 1 a 0.50004997,0.50004997 0 0 0 0.5,-0.5 v -0.5 h 1.5 a 0.50004997,0.50004997 0 1 0 0,-1 z"
         style="color:#000000;font-style:normal;font-variant:normal;font-weight:normal;font-stretch:normal;font-size:medium;line-height:normal;font-family:sans-serif;font-variant-ligatures:normal;font-variant-position:normal;font-variant-caps:normal;font-variant-numeric:normal;font-variant-alternates:normal;font-feature-settings:normal;text-indent:0;text-align:start;text-decoration:none;text-decoration-line:none;text-decoration-style:solid;text-decoration-color:#000000;letter-spacing:normal;word-spacing:normal;text-transform:none;writing-mode:lr-tb;direction:ltr;text-orientation:mixed;dominant-baseline:auto;baseline-shift:baseline;text-anchor:start;white-space:normal;shape-padding:0;clip-rule:nonzero;display:inline;overflow:visible;visibility:visible;opacity:1;isolation:auto;mix-blend-mode:normal;color-interpolation:sRGB;color-interpolation-filters:linearRGB;solid-color:#000000;solid-opacity:1;vector-effect:none;fill:#ffffff;fill-opacity:1;fill-rule:nonzero;stroke:none;stroke-width:1px;stroke-linecap:round;stroke-linejoin:round;stroke-miterlimit:4;stroke-dasharray:none;stroke-dashoffset:0;stroke-opacity:1;marker:none;paint-order:fill markers stroke;color-rendering:auto;image-rendering:auto;shape-rendering:auto;text-rendering:auto;enable-background:accumulate" />
      <path
         inkscape:connector-curvature="0"
         id="path24811"
         d="m 1025.4902,1561.0059 a 0.50005,0.50005 0 0 0 -0.3437,0.8476 l 0.8535,0.8535 v 1.543 a 0.50005,0.50005 0 1 0 1,0 V 1563 h 2 v 1.25 a 0.50005,0.50005 0 1 0 1,0 v -1.543 l 0.8535,-0.8535 a 0.50005,0.50005 0 0 0 -0.707,-0.707 L 1029.293,1562 h -2.586 l -0.8535,-0.8535 a 0.50005,0.50005 0 0 0 -0.3633,-0.1406 z"
         style="color:#000000;font-style:normal;font-variant:normal;font-weight:normal;font-stretch:normal;font-size:medium;line-height:normal;font-family:sans-serif;font-variant-ligatures:normal;font-variant-position:normal;font-variant-caps:normal;font-variant-numeric:normal;font-variant-alternates:normal;font-feature-settings:normal;text-indent:0;text-align:start;text-decoration:none;text-decoration-line:none;text-decoration-style:solid;text-decoration-color:#000000;letter-spacing:normal;word-spacing:normal;text-transform:none;writing-mode:lr-tb;direction:ltr;text-orientation:mixed;dominant-baseline:auto;baseline-shift:baseline;text-anchor:start;white-space:normal;shape-padding:0;clip-rule:nonzero;display:inline;overflow:visible;visibility:visible;opacity:0.6;isolation:auto;mix-blend-mode:normal;color-interpolation:sRGB;color-interpolation-filters:linearRGB;solid-color:#000000;solid-opacity:1;vector-effect:none;fill:#ffffff;fill-opacity:1;fill-rule:nonzero;stroke:none;stroke-width:1px;stroke-linecap:round;stroke-linejoin:round;stroke-miterlimit:4;stroke-dasharray:none;stroke-dashoffset:0;stroke-opacity:1;color-rendering:auto;image-rendering:auto;shape-rendering:auto;text-rendering:auto;enable-background:accumulate" />
    </g>
  </g>
</svg>
