<svg
   inkscape:export-ydpi="96"
   inkscape:export-xdpi="96"
   inkscape:export-filename="blender_icons.png"
   style="display:inline;enable-background:new"
   inkscape:output_extension="org.inkscape.output.svg.inkscape"
   sodipodi:docname="blender_icons.svg"
   version="1.0"
   inkscape:version="1.2 (dc2aeda, 2022-05-15)"
   sodipodi:version="0.32"
   id="svg2"
   height="14.00005"
   width="12.99931"
   xmlns:inkscape="http://www.inkscape.org/namespaces/inkscape"
   xmlns:sodipodi="http://sodipodi.sourceforge.net/DTD/sodipodi-0.dtd"
   xmlns="http://www.w3.org/2000/svg"
   xmlns:svg="http://www.w3.org/2000/svg"
   xmlns:rdf="http://www.w3.org/1999/02/22-rdf-syntax-ns#"
   xmlns:cc="http://creativecommons.org/ns#"
   xmlns:dc="http://purl.org/dc/elements/1.1/">
  <metadata
     id="metadata34337">
    <rdf:RDF>
      <cc:Work
         rdf:about="">
        <dc:format>image/svg+xml</dc:format>
        <dc:type
           rdf:resource="http://purl.org/dc/dcmitype/StillImage" />
        <dc:title />
      </cc:Work>
    </rdf:RDF>
  </metadata>
  <sodipodi:namedview
     inkscape:pagecheckerboard="true"
     inkscape:document-rotation="0"
     pagecolor="#808080"
     bordercolor="#666666"
     borderopacity="1"
     objecttolerance="10"
     gridtolerance="10"
     guidetolerance="10"
     inkscape:pageopacity="0"
     inkscape:pageshadow="2"
     inkscape:window-width="1728"
     inkscape:window-height="1051"
     id="namedview34335"
     showgrid="false"
     inkscape:zoom="1.7115805"
     inkscape:cx="217.6351"
     inkscape:cy="369.54148"
     inkscape:window-x="767"
     inkscape:window-y="92"
     inkscape:window-maximized="0"
     inkscape:current-layer="layer4"
     inkscape:showpageshadow="2"
     inkscape:deskcolor="#808080" />
  <defs
     id="defs4" />
  <g
     inkscape:groupmode="layer"
     id="layer8"
     inkscape:label="icons"
     style="display:inline"
     transform="translate(-91.007812,-473)">
    <g
       id="g37782"
       inkscape:label="W-5"
       style="display:inline;enable-background:new">
      <path
         style="color:#000000;font-style:normal;font-variant:normal;font-weight:normal;font-stretch:normal;font-size:medium;line-height:normal;font-family:sans-serif;font-variant-ligatures:normal;font-variant-position:normal;font-variant-caps:normal;font-variant-numeric:normal;font-variant-alternates:normal;font-feature-settings:normal;text-indent:0;text-align:start;text-decoration:none;text-decoration-line:none;text-decoration-style:solid;text-decoration-color:#000000;letter-spacing:normal;word-spacing:normal;text-transform:none;writing-mode:lr-tb;direction:ltr;text-orientation:mixed;dominant-baseline:auto;baseline-shift:baseline;text-anchor:start;white-space:normal;shape-padding:0;clip-rule:nonzero;display:inline;overflow:visible;visibility:visible;opacity:1;isolation:auto;mix-blend-mode:normal;color-interpolation:sRGB;color-interpolation-filters:linearRGB;solid-color:#000000;solid-opacity:1;vector-effect:none;fill:#ffffff;fill-opacity:1;fill-rule:nonzero;stroke:none;stroke-width:1px;stroke-linecap:round;stroke-linejoin:round;stroke-miterlimit:4;stroke-dasharray:none;stroke-dashoffset:0;stroke-opacity:1;color-rendering:auto;image-rendering:auto;shape-rendering:auto;text-rendering:auto;enable-background:new"
         d="m 96.5,473 c -2.087116,0 -3.478164,1.04607 -4.390625,2.1875 a 0.50024408,0.50024408 0 0 0 0.78125,0.625 C 93.690488,474.81193 94.734388,474 96.5,474 c 2.098393,0 3.134109,0.87695 3.75195,1.94531 C 100.8698,477.01367 101,478.31651 101,479 h -5.25 c -1.273438,0 -2.443243,0.36418 -3.314453,1.05469 -0.87121,0.69051 -1.427734,1.72791 -1.427735,2.94531 10e-7,1.2174 0.556525,2.2548 1.427735,2.94531 C 93.306757,486.63582 94.476562,487 95.75,487 h 0.75 c 1.755585,0 3.387714,-0.96684 4.53711,-2.0332 0.0781,0.53303 0.28951,1.00434 0.64062,1.35547 C 102.12862,486.77315 102.775,487 103.5,487 a 0.50005,0.50005 0 1 0 0,-1 c -0.525,0 -0.87862,-0.14815 -1.11523,-0.38477 C 102.14815,485.37862 102,485.025 102,484.5 V 479 c 0,-0.79721 -0.12242,-2.24322 -0.88086,-3.55469 C 100.3607,474.13385 98.896459,473 96.5,473 Z m -0.75,7 H 101 v 3.56055 C 100.04582,484.68473 98.18875,486 96.5,486 h -0.75 c -1.081007,0 -2.03187,-0.31555 -2.693359,-0.83984 -0.66149,-0.52429 -1.048828,-1.23676 -1.048829,-2.16016 10e-7,-0.9234 0.387339,-1.63587 1.048829,-2.16016 C 93.718131,480.31555 94.668993,480 95.75,480 Z"
         id="path10278-2"
         inkscape:connector-curvature="0" />
    </g>
  </g>
</svg>
