<svg
   inkscape:export-ydpi="96"
   inkscape:export-xdpi="96"
   inkscape:export-filename="blender_icons.png"
   style="display:inline;enable-background:new"
   inkscape:output_extension="org.inkscape.output.svg.inkscape"
   sodipodi:docname="blender_icons.svg"
   version="1.0"
   inkscape:version="1.2 (dc2aeda, 2022-05-15)"
   sodipodi:version="0.32"
   id="svg2"
   height="14.000293"
   width="14.014143"
   xmlns:inkscape="http://www.inkscape.org/namespaces/inkscape"
   xmlns:sodipodi="http://sodipodi.sourceforge.net/DTD/sodipodi-0.dtd"
   xmlns="http://www.w3.org/2000/svg"
   xmlns:svg="http://www.w3.org/2000/svg"
   xmlns:rdf="http://www.w3.org/1999/02/22-rdf-syntax-ns#"
   xmlns:cc="http://creativecommons.org/ns#"
   xmlns:dc="http://purl.org/dc/elements/1.1/">
  <metadata
     id="metadata34337">
    <rdf:RDF>
      <cc:Work
         rdf:about="">
        <dc:format>image/svg+xml</dc:format>
        <dc:type
           rdf:resource="http://purl.org/dc/dcmitype/StillImage" />
        <dc:title />
      </cc:Work>
    </rdf:RDF>
  </metadata>
  <sodipodi:namedview
     inkscape:pagecheckerboard="true"
     inkscape:document-rotation="0"
     pagecolor="#808080"
     bordercolor="#666666"
     borderopacity="1"
     objecttolerance="10"
     gridtolerance="10"
     guidetolerance="10"
     inkscape:pageopacity="0"
     inkscape:pageshadow="2"
     inkscape:window-width="1728"
     inkscape:window-height="1051"
     id="namedview34335"
     showgrid="false"
     inkscape:zoom="1.7115805"
     inkscape:cx="217.6351"
     inkscape:cy="369.54148"
     inkscape:window-x="767"
     inkscape:window-y="92"
     inkscape:window-maximized="0"
     inkscape:current-layer="layer4"
     inkscape:showpageshadow="2"
     inkscape:deskcolor="#808080" />
  <defs
     id="defs4" />
  <g
     inkscape:groupmode="layer"
     id="layer8"
     inkscape:label="icons"
     style="display:inline"
     transform="translate(-362.98598,-31.999758)">
    <g
       transform="translate(-210.007,-588)"
       id="g12466"
       style="display:inline;fill:#ffffff;enable-background:new"
       inkscape:export-filename="blender_icons.png"
       inkscape:export-xdpi="96"
       inkscape:export-ydpi="96"
       inkscape:label="B-18">
      <g
         transform="translate(22)"
         id="g12463"
         style="fill:#ffffff">
        <path
           style="color:#000000;font-style:normal;font-variant:normal;font-weight:normal;font-stretch:normal;font-size:medium;line-height:normal;font-family:sans-serif;font-variant-ligatures:normal;font-variant-position:normal;font-variant-caps:normal;font-variant-numeric:normal;font-variant-alternates:normal;font-feature-settings:normal;text-indent:0;text-align:start;text-decoration:none;text-decoration-line:none;text-decoration-style:solid;text-decoration-color:#000000;letter-spacing:normal;word-spacing:normal;text-transform:none;writing-mode:lr-tb;direction:ltr;text-orientation:mixed;dominant-baseline:auto;baseline-shift:baseline;text-anchor:start;white-space:normal;shape-padding:0;clip-rule:nonzero;display:inline;overflow:visible;visibility:visible;opacity:1;isolation:auto;mix-blend-mode:normal;color-interpolation:sRGB;color-interpolation-filters:linearRGB;solid-color:#000000;solid-opacity:1;vector-effect:none;fill:#ffffff;fill-opacity:1;fill-rule:nonzero;stroke:none;stroke-width:1;stroke-linecap:round;stroke-linejoin:miter;stroke-miterlimit:4;stroke-dasharray:none;stroke-dashoffset:0;stroke-opacity:1;color-rendering:auto;image-rendering:auto;shape-rendering:auto;text-rendering:auto;enable-background:new"
           d="m 557.5,620 a 0.50005,0.50005 0 1 0 0,1 h 6.99219 a 0.50005,0.50005 0 1 0 0,-1 z m 0,2 a 0.50005,0.50005 0 1 0 0,1 h 6.99219 a 0.50005,0.50005 0 1 0 0,-1 z m 0,2 a 0.50005,0.50005 0 1 0 0,1 h 6.99219 a 0.50005,0.50005 0 1 0 0,-1 z m 0,5 a 0.50005,0.50005 0 1 0 0,1 h 6.99219 a 0.50005,0.50005 0 1 0 0,-1 z m 0,2 a 0.50005,0.50005 0 1 0 0,1 h 6.99219 a 0.50005,0.50005 0 1 0 0,-1 z m 0,2 a 0.50005,0.50005 0 1 0 0,1 h 7 a 0.50005,0.50005 0 1 0 0,-1 z"
           id="path12459"
           inkscape:connector-curvature="0" />
        <path
           style="color:#000000;font-style:normal;font-variant:normal;font-weight:normal;font-stretch:normal;font-size:medium;line-height:normal;font-family:sans-serif;font-variant-ligatures:normal;font-variant-position:normal;font-variant-caps:normal;font-variant-numeric:normal;font-variant-alternates:normal;font-feature-settings:normal;text-indent:0;text-align:start;text-decoration:none;text-decoration-line:none;text-decoration-style:solid;text-decoration-color:#000000;letter-spacing:normal;word-spacing:normal;text-transform:none;writing-mode:lr-tb;direction:ltr;text-orientation:mixed;dominant-baseline:auto;baseline-shift:baseline;text-anchor:start;white-space:normal;shape-padding:0;clip-rule:nonzero;display:inline;overflow:visible;visibility:visible;opacity:1;isolation:auto;mix-blend-mode:normal;color-interpolation:sRGB;color-interpolation-filters:linearRGB;solid-color:#000000;solid-opacity:1;vector-effect:none;fill:#ffffff;fill-opacity:1;fill-rule:nonzero;stroke:none;stroke-width:1;stroke-linecap:round;stroke-linejoin:round;stroke-miterlimit:4;stroke-dasharray:none;stroke-dashoffset:0;stroke-opacity:1;color-rendering:auto;image-rendering:auto;shape-rendering:auto;text-rendering:auto;enable-background:accumulate"
           d="m 553.48438,620 a 0.50005,0.50005 0 0 0 -0.3379,0.14648 l -2,2 a 0.50005,0.50005 0 1 0 0.70704,0.70704 L 553,621.70703 V 625.5 a 0.50005,0.50005 0 1 0 1,0 v -5 A 0.50005,0.50005 0 0 0 553.48438,620 Z M 553,628 c -0.79172,0 -1.70536,0.42737 -1.98047,1.35938 a 0.50062501,0.50062501 0 1 0 0.96094,0.28124 C 552.10464,629.21999 552.55814,629 553,629 c 0.31942,0 0.59941,0.0632 0.75391,0.16602 0.1545,0.10279 0.25034,0.21211 0.2539,0.58789 5.6e-4,0.20689 -0.076,0.32805 -0.29687,0.52148 -0.22152,0.19398 -0.57835,0.40234 -0.9668,0.64453 -0.38845,0.24219 -0.81151,0.52364 -1.1543,0.93555 -0.34278,0.4119 -0.58774,0.96871 -0.58984,1.64258 A 0.50005,0.50005 0 0 0 551.5,634 h 3 a 0.50005,0.50005 0 1 0 0,-1 h -2.32227 c 0.0615,-0.1621 0.068,-0.36972 0.17969,-0.50391 0.22282,-0.26775 0.55267,-0.50197 0.91602,-0.72851 0.36335,-0.22654 0.7571,-0.44007 1.09765,-0.73828 0.34056,-0.29822 0.6393,-0.73918 0.63672,-1.28125 a 0.50005,0.50005 0 0 0 0,-0.002 c -0.006,-0.62417 -0.29003,-1.13985 -0.69922,-1.41211 C 553.89941,628.06173 553.43058,628 553,628 Z"
           id="path12461"
           inkscape:connector-curvature="0" />
      </g>
    </g>
  </g>
</svg>
