<svg xmlns="http://www.w3.org/2000/svg" width="20" height="20" viewBox="0 0 20 20" xml:space="preserve"><g transform="translate(-578.5642857142857, -315.70425714285716) scale(1.0, 1.0)"><path fill="#ffffff" d="m -109.99609,533.99609 -0.004,7.11133 c -1.67885,0.25428 -2.99414,1.64686 -2.99414,3.39453 0,1.92568 1.57041,3.49805 3.49609,3.49805 1.92569,0 3.49805,-1.57236 3.49805,-3.49805 0,-1.74925 -1.31894,-3.14219 -3,-3.39453 l 0.004,-7.11133 z m 0.49804,8.00977 c 1.38524,0 2.49805,1.11085 2.49805,2.49609 0,1.38525 -1.1128,2.49805 -2.49805,2.49805 -1.38524,0 -2.49609,-1.11281 -2.49609,-2.49805 0,-1.38523 1.11086,-2.49609 2.49609,-2.49609 z" /></g></svg>